mtllib Alakazam_Normalm.mtl
v 0 0.841349 0.0995619
vt 0.924119 0.0809883
vn 0 0.9831972 -0.182547
v -0.144681 0.804698 0.233184
vn -0.3130109 0.6129369 0.7254878
v 0 0.8247271 0.241686
vn 0 0.8934161 0.44923
v -0.25452 1.00358 0.0566974
vn -0.04630831 0.9506532 -0.3067801
v 0.144681 0.804698 0.233184
vn 0.3130109 0.6129369 0.7254878
v -0.197457 0.779121 0.0404411
vn -0.6470337 0.1184169 -0.7532097
v 0.25452 1.00358 0.0566974
vn 0.04630781 0.9506533 -0.3067801
v 0 0.77233 -0.0171113
vn 0 0.6294252 -0.7770612
v 0.197457 0.779121 0.0404411
vn 0.6470337 0.1184179 -0.7532096
v 0 0.722115 0.335228
vn 0 0.5585552 0.8294674
v -0.166288 0.713703 0.194559
vn -0.9296868 -0.04337669 0.365788
v -0.105458 0.6511151 0.342009
vn -0.7352759 0.04338649 0.6763779
v 0.166288 0.713703 0.194559
vn 0.9296872 -0.04337671 0.3657871
v -0.207645 0.7154911 0.0285993
vn -0.648307 0.238206 -0.7231569
v 0.207645 0.7154911 0.0285993
vn 0.6483017 0.3368678 -0.6828067
v 0 0.627983 -0.0885369
vn -0.03108019 0.104055 -0.9940858
v 0 0.636274 0.376973
vn 0 0.0157976 0.9998752
v -0.0802906 0.5076261 0.339676
vn -0.7115299 -0.12184 0.6920118
v -0.1925 0.6062961 0.148969
vn -0.8920627 -0.0138344 0.4516999
v 0.105458 0.6511151 0.34201
vn 0.7352759 0.04338639 0.6763779
v 0.1925 0.6062961 0.148969
vn 0.8993181 -0.0249088 0.4365851
v -0.279824 0.553449 0.0525525
vn -0.7859216 -0.1929239 -0.5874587
v 0.279824 0.5600821 0.0206703
vn 0.7609149 -0.179458 -0.623541
v 0 0.518826 -0.0609102
vn -0.029185 -0.5319191 -0.8462921
v 0 0.5101601 0.353547
vn 0 0.003925521 0.9999923
v -0.0747301 0.407882 0.275957
vn -0.7891468 -0.5973599 0.142858
v -0.0581532 0.408772 0.368922
vn -0.463434 -0.0698786 0.8833719
v 0.0802907 0.5076261 0.339676
vn 0.7182947 -0.120816 0.6851687
v 0.144681 0.474925 0.0932058
vn 0.3755579 -0.8470568 -0.3760999
v -0.144681 0.474925 0.0932058
vn -0.3986259 -0.8354048 -0.3784129
v 0 0.410024 0.0656575
vn 0 -0.9166387 -0.3997169
v 0.0762699 0.396201 0.270999
vn 0.7766139 -0.6161249 0.131381
v 0.200667 0.5070851 0.106857
vn 0.816202 -0.425035 0.391356
v -0.200667 0.5070851 0.106857
vn -0.7866642 -0.4370731 0.4360351
v 0 0.354258 0.37534
vn 0 -0.2852519 0.9584526
v 0 0.338278 0.298584
vn -0.02664441 -0.9965045 -0.07917614
v 0 0.384813 0.244728
vn -0.0430532 -0.9588341 -0.280684
v 0.0581533 0.408772 0.368922
vn 0.4707231 -0.07027122 0.8794782
v 0 0.452917 0.0516851
vt 0.761204 0.92241
vn 0 0.9574953 0.2884491
v 0.0743818 0.468045 -0.0375169
vn 0.4142933 0.6151935 -0.6707445
v -0.0743817 0.468045 -0.037517
vn -0.414293 0.6151941 -0.6707441
v 0.148763 0.429394 0.0469605
vn 0.7774408 0.5825999 -0.2369879
v -0.148763 0.429394 0.0469605
vn -0.7774413 0.5825992 -0.2369881
v 0.0743817 0.405362 0.166611
vn 0.05626558 0.4072708 0.9115726
v -0.0743817 0.405362 0.166611
vn -0.05626558 0.4072708 0.9115726
v -0.0963527 0.309002 -0.134464
vn -0.4903751 0.338041 -0.8032811
v 0.0963528 0.309002 -0.134464
vn 0.4903751 0.338041 -0.8032811
v 0.0963527 0.196403 0.183362
vn 0.249546 -0.278842 0.9273478
v -0.0963528 0.196403 0.183362
vn -0.249546 -0.278842 0.9273478
v 0.192706 0.252193 0.0243468
vn 0.9543217 -0.07147509 -0.2901059
v -0.192706 0.252193 0.0243468
vn -0.9543217 -0.07147489 -0.2901059
v -0.0908661 1.490116E-08 0
vt 0.249011 0
vn -0.12975 -0.9790918 -0.156666
v -0.0814233 0.188071 -0.16998
vt 0.249011 1
vn -0.4030229 -0.20877 -0.8910599
v 0 0.123877 0
vt 0.249011 0.776258
vn 0 -0.9696352 -0.2445561
v -0.162847 0.150039 0
vt 0.249011 0.940198
vn -0.945787 -0.295369 -0.135071
v -0.0814234 0.126654 0.138401
vn -0.3979311 -0.6754302 0.6208421
v 0.0908661 1.490116E-08 0
vn 0.12975 -0.9790918 -0.156666
v 0.0814233 0.126654 0.138401
vn 0.3979311 -0.6754302 0.6208421
v 0.0814234 0.188071 -0.16998
vn 0.4030228 -0.2087709 -0.8910596
v 0.162847 0.150039 0
vn 0.945787 -0.295369 -0.135071
v -0.265546 0.307282 0.204466
vt 0.818937 -0.0700102
vn -0.7937108 -0.02684139 0.6077029
vt 0.825397 0.968387
v 0.265546 0.307282 0.204466
vn 0.7937112 -0.02684151 0.6077022
vt 0.761204 0.66164
vt 0.761204 0.97631
vt 0.761204 0.633658
vt 0.761204 0.619857
vt 0.761204 0.924981
vt 0.761204 0.648878
vt 0.761204 0.87667
v 0.185398 0.239528 0.326165
vt 0.912504 0.0772541
vn -0.03638611 0.08105592 0.9960452
v 0.134929 0.155956 0.333038
vn -0.05343699 0.09862617 0.9936888
v 0.25689 0.230729 0.332602
v 0.138709 0.217412 0.326729
v 0.134446 0.354882 0.320753
vn -0.02866549 0.05729458 0.9979457
v 0.152334 0.374457 0.320187
v 0.273615 0.152263 0.339473
v 0.0976422 0.405974 0.315307
vn -0.04737169 0.07207149 0.9962739
v -0.185398 0.239528 0.326165
vn 0.03638611 0.08105592 0.9960452
v -0.25689 0.230729 0.332602
vn 0.05343699 0.09862617 0.9936888
v -0.134929 0.155956 0.333038
v -0.138709 0.217412 0.326729
v -0.134446 0.354882 0.320753
vn 0.02866549 0.05729458 0.9979457
v -0.152334 0.374457 0.320187
v -0.273615 0.152263 0.339473
v -0.0976422 0.405974 0.315307
vn 0.04737169 0.07207149 0.9962739
vn 0.03638611 -0.08105592 -0.9960452
vn 0.05343699 -0.09862617 -0.9936888
vn 0.02866549 -0.05729458 -0.9979457
vn 0.04737169 -0.07207149 -0.9962739
vn -0.03638611 -0.08105592 -0.9960452
vn -0.05343699 -0.09862617 -0.9936888
vn -0.02866549 -0.05729458 -0.9979457
vn -0.04737169 -0.07207149 -0.9962739
o merged_0_0_node
g polygon_0
usemtl mat_skin_mat_id
f 1/1/1 2/1/2 3/1/3
f 1/1/1 4/1/4 2/1/2
f 1/1/1 3/1/3 5/1/5
f 1/1/1 6/1/6 4/1/4
f 1/1/1 5/1/5 7/1/7
f 1/1/1 8/1/8 6/1/6
f 1/1/1 7/1/7 9/1/9
f 1/1/1 9/1/9 8/1/8
f 2/1/2 10/1/10 3/1/3
f 2/1/2 4/1/4 11/1/11
f 2/1/2 12/1/12 10/1/10
f 2/1/2 11/1/11 12/1/12
f 4/1/4 6/1/6 11/1/11
f 3/1/3 10/1/10 5/1/5
f 7/1/7 13/1/13 9/1/9
f 7/1/7 5/1/5 13/1/13
f 8/1/8 14/1/14 6/1/6
f 8/1/8 9/1/9 15/1/15
f 8/1/8 16/1/16 14/1/14
f 8/1/8 15/1/15 16/1/16
f 12/1/12 17/1/17 10/1/10
f 12/1/12 18/1/18 17/1/17
f 11/1/11 6/1/6 19/1/19
f 6/1/6 14/1/14 19/1/19
f 5/1/5 20/1/20 13/1/13
f 5/1/5 10/1/10 20/1/20
f 10/1/10 17/1/17 20/1/20
f 9/1/9 21/1/21 15/1/15
f 9/1/9 13/1/13 21/1/21
f 16/1/16 22/1/22 14/1/14
f 16/1/16 15/1/15 23/1/23
f 16/1/16 24/1/24 22/1/22
f 16/1/16 23/1/23 24/1/24
f 15/1/15 21/1/21 23/1/23
f 14/1/14 22/1/22 19/1/19
f 18/1/18 25/1/25 17/1/17
f 18/1/18 19/1/19 26/1/26
f 18/1/18 27/1/27 25/1/25
f 18/1/18 26/1/26 27/1/27
f 20/1/20 17/1/17 28/1/28
f 17/1/17 25/1/25 28/1/28
f 24/1/24 23/1/23 29/1/29
f 24/1/24 30/1/30 22/1/22
f 24/1/24 29/1/29 31/1/31
f 24/1/24 31/1/31 30/1/30
f 21/1/21 28/1/28 32/1/32
f 21/1/21 33/1/33 23/1/23
f 21/1/21 32/1/32 33/1/33
f 33/1/33 32/1/32 29/1/29
f 33/1/33 29/1/29 23/1/23
f 19/1/19 34/1/34 26/1/26
f 19/1/19 22/1/22 34/1/34
f 34/1/34 22/1/22 30/1/30
f 34/1/34 30/1/30 26/1/26
f 27/1/27 35/1/35 25/1/25
f 27/1/27 26/1/26 36/1/36
f 27/1/27 36/1/36 35/1/35
f 31/1/31 29/1/29 37/1/37
f 31/1/31 37/1/37 30/1/30
f 37/1/37 32/1/32 36/1/36
f 37/1/37 26/1/26 30/1/30
f 37/1/37 29/1/29 32/1/32
f 37/1/37 36/1/36 26/1/26
f 28/1/28 25/1/25 38/1/38
f 28/1/28 38/1/38 32/1/32
f 38/1/38 25/1/25 35/1/35
f 38/1/38 36/1/36 32/1/32
f 38/1/38 35/1/35 36/1/36
f 39/2/39 40/2/40 41/2/41
f 39/2/39 42/2/42 40/2/40
f 39/2/39 41/2/41 43/2/43
f 39/2/39 44/2/44 42/2/42
f 39/2/39 43/2/43 45/2/45
f 39/2/39 45/2/45 44/2/44
f 40/2/40 46/2/46 41/2/41
f 40/2/40 42/2/42 47/2/47
f 40/2/40 47/2/47 46/2/46
f 41/2/41 46/2/46 43/2/43
f 45/2/45 48/2/48 44/2/44
f 45/2/45 49/2/49 48/2/48
f 42/2/42 50/2/50 47/2/47
f 46/2/46 51/2/51 43/2/43
f 52/3/52 53/4/53 54/5/54
f 52/3/52 55/6/55 53/4/53
f 52/3/52 54/5/54 56/6/56
f 52/3/52 56/6/56 55/6/55
f 54/5/54 57/3/57 58/6/58
f 54/5/54 59/4/59 57/3/57
f 58/6/58 57/3/57 60/6/60
f 60/6/60 57/3/57 59/4/59
f 61/7/61 45/8/45 43/8/43
f 61/7/61 49/8/49 45/8/45
f 61/7/61 43/8/43 51/8/51
f 61/7/61 51/8/51 49/8/49
f 62/7/62 42/8/42 44/8/44
f 62/7/62 50/8/50 42/8/42
f 62/7/62 44/8/44 48/8/48
f 62/7/62 48/8/48 50/8/50
f 53/9/53 47/10/47 59/9/59
f 53/9/53 46/10/46 47/10/47
f 53/9/53 59/9/59 54/11/54
f 53/9/53 55/12/55 46/10/46
f 47/10/47 60/12/60 59/9/59
f 47/10/47 50/13/50 60/12/60
f 54/11/54 58/14/58 56/14/56
f 55/12/55 51/13/51 46/10/46
f 55/12/55 56/14/56 49/15/49
f 55/12/55 49/15/49 51/13/51
f 56/14/56 58/14/58 49/15/49
f 50/13/50 48/15/48 60/12/60
f 48/15/48 49/15/49 58/14/58
f 48/15/48 58/14/58 60/12/60
f 63/16/63 64/16/64 65/16/64
f 63/16/63 66/16/63 64/16/64
f 63/16/63 67/16/65 66/16/63
f 63/16/63 68/16/65 67/16/65
f 65/16/64 64/16/64 69/16/63
f 68/16/65 70/16/66 67/16/65
f 71/16/67 72/16/68 73/16/68
f 71/16/67 73/16/68 74/16/67
f 71/16/67 74/16/67 75/16/69
f 71/16/67 75/16/69 76/16/69
f 72/16/68 77/16/67 73/16/68
f 75/16/69 78/16/70 76/16/69
f 63/16/71 65/16/72 64/16/72
f 63/16/71 64/16/72 66/16/71
f 63/16/71 66/16/71 67/16/73
f 63/16/71 67/16/73 68/16/73
f 65/16/72 69/16/71 64/16/72
f 67/16/73 70/16/74 68/16/73
f 71/16/75 73/16/76 72/16/76
f 71/16/75 74/16/75 73/16/76
f 71/16/75 75/16/77 74/16/75
f 71/16/75 76/16/77 75/16/77
f 72/16/76 73/16/76 77/16/75
f 76/16/77 78/16/78 75/16/77
v -0.296476 0.181297 0.187605
vt 0.25 0.25
vn -0.678533 -0.0317597 -0.733883
v -0.269727 0.181297 0.210379
vt 0.5 0.25
vn 0 -0.06604229 0.9978169
v -0.290544 0.378751 0.187605
vt 0.25 0.5
vn -0.8623783 -0.127907 -0.4898402
v -0.269727 0.378751 0.208422
vt 0.5 0.5
vn 0 -0.138897 0.9903069
v -0.242978 0.181297 0.187605
vt 0.75 0.25
vn 0.678533 -0.0317596 -0.733883
v -0.24891 0.378751 0.187605
vt 0.75 0.5
vn 0.8623785 -0.1279079 -0.4898397
v -0.269727 0.462946 0.194756
vt 0 0.75
vn 4.171638E-05 -0.008544287 -0.9999635
v -0.327054 0.420849 0.187605
vt 0.25 0.625
vn -0.854626 -0.363117 0.371161
v -0.328174 0.462946 0.187605
vt 0.25 0.75
vn -0.9868734 0.1556651 0.04300182
v -0.269727 0.462946 0.232392
vt 0.5 0.75
vn 0 -0.0203874 0.9997922
v -0.2124 0.420849 0.187605
vt 0.75 0.625
vn 0.8546257 -0.3631169 0.3711619
vt 1 0.75
v -0.312545 0.503008 0.187605
vt 0.184214 0.881572
vn -0.7612219 0.645404 0.0632055
v -0.269727 0.533998 0.187605
vt 0.125 1
vn 0.0190673 0.9831488 0.18181
vt 0.315786 0.881572
vt 0.375 1
v -0.21128 0.462946 0.187605
vt 0.75 0.75
vn 0.9893863 0.139986 0.03897031
v -0.22505 0.50114 0.187605
vt 0.6875 0.875
vn 0.7637917 0.6421068 0.06573428
vt 0.8125 0.875
vt 0 0
v -0.269727 0.181297 0.183435
vt 1 0
vn 0 -0.0647269 -0.997903
vt 0 1
vt 1 1
vt 0.625 1
vt 0.875 1
vt 0 0.25
v 0.250095 0.181297 0.187605
v 0.276844 0.181297 0.210379
v 0.256027 0.378751 0.187605
v 0.276844 0.378751 0.208422
v 0.303593 0.181297 0.187605
v 0.297662 0.378751 0.187605
v 0.276844 0.462946 0.194756
v 0.219517 0.420849 0.187605
v 0.218397 0.462946 0.187605
v 0.276844 0.462946 0.232392
v 0.334171 0.420849 0.187605
v 0.234026 0.503008 0.187605
v 0.276844 0.533998 0.187605
v 0.335292 0.462946 0.187605
v 0.321522 0.50114 0.187605
v 0.276844 0.181297 0.183435
o merged_1_0_node
g polygon_0
usemtl ENV_spoon_mat_id
f 79/17/79 80/18/80 81/19/81
f 81/19/81 80/18/80 82/20/82
f 83/21/83 84/22/84 80/18/80
f 80/18/80 84/22/84 82/20/82
f 85/23/85 86/24/86 87/25/87
f 86/24/86 88/26/88 87/25/87
f 84/22/84 89/27/89 82/20/82
f 82/20/82 89/27/89 88/26/88
f 85/28/85 81/19/81 86/24/86
f 85/23/85 90/29/90 91/30/91
f 90/31/90 88/26/88 91/32/91
f 88/26/88 92/33/92 93/34/93
f 92/33/92 85/28/85 93/35/93
f 79/36/79 94/37/94 80/38/80
f 80/38/80 94/37/94 83/39/83
f 87/25/87 88/26/88 90/31/90
f 88/26/88 93/34/93 91/40/91
f 81/19/81 82/20/82 86/24/86
f 86/24/86 82/20/82 88/26/88
f 88/26/88 89/27/89 92/33/92
f 85/23/85 87/25/87 90/29/90
f 93/35/93 85/28/85 91/41/91
f 89/27/89 85/28/85 92/33/92
f 85/28/85 84/22/84 81/19/81
f 85/28/85 89/27/89 84/22/84
f 83/21/83 94/42/94 84/22/84
f 84/22/84 94/42/94 81/19/81
f 81/19/81 94/42/94 79/17/79
f 95/17/79 96/18/80 97/19/81
f 97/19/81 96/18/80 98/20/82
f 99/21/83 100/22/84 96/18/80
f 96/18/80 100/22/84 98/20/82
f 101/23/85 102/24/86 103/25/87
f 102/24/86 104/26/88 103/25/87
f 100/22/84 105/27/89 98/20/82
f 98/20/82 105/27/89 104/26/88
f 101/28/85 97/19/81 102/24/86
f 101/23/85 106/29/90 107/30/91
f 106/31/90 104/26/88 107/32/91
f 104/26/88 108/33/92 109/34/93
f 108/33/92 101/28/85 109/35/93
f 95/36/79 110/37/94 96/38/80
f 96/38/80 110/37/94 99/39/83
f 103/25/87 104/26/88 106/31/90
f 104/26/88 109/34/93 107/40/91
f 97/19/81 98/20/82 102/24/86
f 102/24/86 98/20/82 104/26/88
f 104/26/88 105/27/89 108/33/92
f 101/23/85 103/25/87 106/29/90
f 109/35/93 101/28/85 107/41/91
f 105/27/89 101/28/85 108/33/92
f 101/28/85 100/22/84 97/19/81
f 101/28/85 105/27/89 100/22/84
f 99/21/83 110/42/94 100/22/84
f 100/22/84 110/42/94 97/19/81
f 97/19/81 110/42/94 95/17/79
vt 1.06832 1.00478
vt 1.06832 0.777346
vt 0.22944 1.00478
vt -0.167579 0.745551
o merged_2_0_node
g polygon_0
usemtl TEX_ANIM_EYE_mat_id
f 11/43/11 19/44/19 12/45/12
f 12/45/12 19/44/19 18/46/18
f 13/43/13 20/45/20 21/44/21
f 21/44/21 20/45/20 28/46/28
