mtllib Chatot.mtl
v 0 0.0673586 0.0689337
vt 0.010837 0.806271
vn -1.116401E-05 -0.6318333 0.7751043
v -0.0952692 0.171789 0.0950385
vt 0.184773 0.890278
vn -0.5593228 -0.1807249 0.8090097
v -0.117918 0.117076 0.0404689
vt 0.178241 0.709622
vn -0.8068737 -0.4235889 0.4117369
v 0 0.148006 0.128857
vt 0.010837 0.991007
vn 0 -0.3430302 0.9393244
v -0.0537571 0.004564363 0
vt 0.104261 0.519056
vn -0.3717569 -0.8996698 0.2288909
v 0.0952692 0.171789 0.0950385
vt 0.186553 0.890278
vn 0.5593232 -0.1807251 0.8090093
v 0 0.0380772 -0.0419026
vt 0.010837 0.449589
vn -0.000198841 -0.9332479 -0.359233
v 0.117918 0.117076 0.0404689
vt 0.179769 0.709622
vn 0.8068848 -0.4235599 0.4117449
v 0.0537465 0.004500123 0
vt 0.106485 0.519176
vn 0.3025661 -0.9529642 -0.017691
v -0.1165698 0.1793853 -0.02565533
vt 0.226085 0.501876
vn -0.8165204 -0.5747189 0.05470571
v -0.1479883 0.2120505 0.04466126
vt 0.287019 0.76329
vn -0.791682 -0.150747 0.592043
v -0.0831144 0.078098 -0.0649995
vt 0.161199 0.375261
vn -0.7803928 -0.5294889 -0.3326089
v 0.1165698 0.1793853 -0.02565534
vt 0.227628 0.501876
vn 0.8165206 -0.5747184 0.05470576
v 0.1479883 0.2120505 0.04466126
vt 0.288211 0.76329
vn 0.7916819 -0.1507477 0.5920428
v 0.0831144 0.078098 -0.0649994
vt 0.163115 0.375261
vn 0.780415 -0.529434 -0.332644
v -0.2546313 0.2852871 -0.08493587
vt 0.493831 0.311114
vn -0.6440558 -0.746793 0.1658073
v 0 0.0963663 -0.181609
vt 0.010837 0
vn 0 -0.547631 -0.83672
v -0.0831144 0.122043 -0.105244
vt 0.161199 0.245749
vn -0.6947822 0.04528501 -0.7177932
v 0.2546313 0.2852873 -0.0849358
vn 0.6440566 -0.7467925 0.165807
v 0.0831144 0.122043 -0.105244
vt 0.163115 0.245749
vn 0.6947822 0.04528531 -0.7177932
v 0 0.132734 -0.330491
vt 0.307134 0.0723951
vn 0 0.988235 -0.152943
v 0 0.09803091 -0.289819
vt 0.307134 0.0561376
vn 0 0.7607224 0.6490774
v 0.023018 0.08908461 -0.289819
vt 0.331276 0.0561376
vn 0.635017 -0.189194 0.748972
v -0.023018 0.08908461 -0.289819
vt 0.282992 0.0561376
vn -0.635017 -0.189194 0.748972
v 0.0447997 0.08867101 -0.330491
vt 0.350421 0.0723951
vn 0.9907451 0.004247291 -0.135669
v -0.0447997 0.08867101 -0.330491
vt 0.263847 0.0723951
vn -0.9907451 0.00424702 -0.135669
v 0.00767265 0.08908461 -0.371163
vt 0.315181 0.0886526
vn 0.6547124 -0.08414145 -0.7511804
v -0.00767265 0.08908461 -0.371163
vt 0.299087 0.0886526
vn -0.6547123 -0.08414184 -0.7511804
v 0 0.09486241 -0.371163
vt 0.307134 0.0886526
vn -1.40263E-06 0.7318547 -0.6814607
v 0 0.04876341 -0.330491
vn 0 -0.9993663 -0.03559481
v 0 0.209871 -0.0931915
vt 0.98993 0.285428
vn 0 0.6894399 -0.7243429
vt 0.838801 0.24664
v -0.08827043 0.2136511 -0.04296782
vt 0.8288 0.447054
vn 0.09507728 0.8061754 -0.5839878
v 0 0.14031 -0.128019
vt 0.98993 0.173348
vn 0 0.5838521 -0.8118601
v 0 0.242631 -0.0244352
vt 0.98993 0.506692
vn 0 0.9740387 -0.2263819
vt 0.836885 0.246641
v 0.08827043 0.2136511 -0.04296782
vt 0.826941 0.447055
vn -0.0950774 0.8061753 -0.5839877
vt 0.506169 0.312006
vn 0.403529 0.8117626 -0.4221442
vt 0.98993 0.00089158
v 0.09526868 0.2240743 0.02597759
vt 0.813447 0.668925
vn 0.09121935 0.9841742 0.1519218
v -0.09526868 0.2240743 0.02597759
vt 0.815227 0.668924
vn -0.09121932 0.9841742 0.1519216
v 0 0.246963 0.0856837
vt 0.98993 0.861065
vn 0 0.8487252 0.5288341
vn -0.4035299 0.8117623 -0.422144
vt 0.815227 0.885094
vt 0.813447 0.885094
vt 0.98993 0.979746
vt 0.712981 0.764182
vt 0.711789 0.764182
v 0.10958 0.478791 0.0732781
vt 0.45088 0.202634
vn 0.5751148 0.6479998 -0.4993388
v 0.161719 0.379103 0.0814003
vt 0.449256 0.18058
vn 0.8661023 0.01346911 -0.4996852
v 0.067724 0.385481 -0.00201453
vt 0.465936 0.181991
vn 0.38005 0.0262637 -0.924593
v 0.177304 0.432514 0.190588
vt 0.427424 0.192396
vn 0.9315248 0.3522049 0.09062708
v 0 0.472455 0.016812
vt 0.462171 0.201232
vn 0 0.6175621 -0.7865221
v 0.0999476 0.517819 0.192541
vt 0.427033 0.211268
vn 0.500886 0.8630939 0.0646705
v 0 0.536987 0.119824
vt 0.441573 0.215508
vn 0 0.9664619 -0.25681
v 0.10958 0.279891 0.068724
vt 0.451791 0.158632
vn 0.56516 -0.59829 -0.568017
v 0.177304 0.309587 0.187773
vt 0.427986 0.165201
vn 0.926945 -0.371916 0.0495123
v -0.10958 0.478791 0.0732781
vn -0.5751148 0.6479998 -0.4993388
v -0.067724 0.385481 -0.00201453
vn -0.38005 0.0262637 -0.924593
v 0.101472 0.463326 0.309662
vt 0.403614 0.199212
vn 0.565166 0.549304 0.61551
v 0.0999476 0.224281 0.18582
vt 0.428377 0.146329
vn 0.5067348 -0.8620746 -0.006868577
v 0.101472 0.278214 0.318937
vt 0.401759 0.158261
vn 0.5765499 -0.576412 0.5790849
v -0.0999476 0.517819 0.192541
vn -0.500886 0.8630939 0.0646705
v 0 0.291038 0.0126582
vt 0.463002 0.161098
v 0 0.452625 0.34621
vt 0.396306 0.196845
vn 0 0.520601 0.8538001
v 0.067724 0.361692 0.353964
vt 0.394756 0.176728
vn 0.4272209 0.0320537 0.9035789
v 0 0.20623 0.258563
vt 0.413832 0.142336
vn 0 -0.9572349 0.289312
v 0 0.274287 0.349978
vt 0.395552 0.157392
vn 0 -0.6010451 0.7992151
v -0.177304 0.432514 0.190588
vn -0.9315248 0.3522049 0.09062708
v -0.161719 0.379103 0.0814003
vn -0.8661023 0.01346901 -0.4996852
v 0 0.21516 0.112455
vt 0.443047 0.144312
v 0 0.360107 0.374392
vt 0.390671 0.176378
vn 0 0.0163592 0.9998662
v -0.067724 0.361692 0.353964
vn -0.4272209 0.0320537 0.9035789
v -0.101472 0.463326 0.309662
vn -0.565166 0.549304 0.61551
v -0.10958 0.279891 0.068724
vn -0.56516 -0.59829 -0.568017
v -0.101472 0.278214 0.318937
vn -0.5765499 -0.576412 0.5790849
v -0.0999476 0.224281 0.18582
vn -0.5067348 -0.8620746 -0.006868577
v -0.177304 0.309587 0.187773
vn -0.926945 -0.371916 0.0495122
v 0 0.528057 0.265931
vt 0.434823 0.0552021
vn 0 0.9268702 0.3753821
vt 0.420713 0.083892
vt 0.399689 0.0552021
vt 0.452805 0.083892
vt 0.465117 0.0552021
v 0 0.368146 0.413684
vt 0.408201 0.964393
vn 0 0.6417369 0.7669249
v 0.0435355 0.333059 0.402909
vt 0.414953 0.945106
vn 0.7647369 0.07555209 0.6398979
v 0.0560183 0.361434 0.357316
vt 0.443523 0.960704
vn 0.7771578 0.4264349 0.4627948
v 0 0.309063 0.429417
vt 0.40002 0.935445
vn 0 -0.241956 0.9702872
v 0 0.413322 0.356903
vt 0.443781 0.989228
vn 0 0.782537 0.6226041
v -0.0435355 0.333059 0.402909
vn -0.7647369 0.07555199 0.6398979
v -0.0560183 0.361434 0.357316
vn -0.7771578 0.4264349 0.4627948
v 0.0462865 0.289095 0.373516
vt 0.433372 0.920938
vn 0.8300233 -0.2615911 0.4925762
v 0 0.244377 0.395521
vt 0.418912 0.904298
vn 0 -0.485764 0.87409
v -0.0462865 0.289095 0.373516
vn -0.8300233 -0.2615911 0.4925762
v -0.057517 0.301139 0.339297
vt 0.454814 0.927559
vn -0.954617 -0.0632488 0.291043
v 0.057517 0.301139 0.339297
vn 0.954617 -0.0632488 0.291043
v 0 0.250512 0.0745427
vt 0.558435 0.0627598
vn 0 0.8707312 0.4917592
v -0.0717736 0.164127 0.177788
vt 0.536035 0.0239626
vn -0.06649781 0.7875201 0.612691
v 0.0717736 0.164127 0.177788
vt 0.580835 0.0239626
vn 0.06649781 0.7875201 0.612691
v -0.147727 0.25113 0.0396917
vt 0.513636 0.0627598
vn -0.007349947 0.8176817 0.5756238
v 0.147727 0.25113 0.0396917
vt 0.603234 0.0627598
vn 0.007349987 0.8176817 0.5756238
v 0 0.268565 -0.00640719
vt 0.558435 0.0821584
v -0.0950542 0.36426 -0.100752
vt 0.536035 0.101557
vn 0.05409359 0.7277689 0.6836859
v 0.0950541 0.36426 -0.100752
vt 0.580835 0.101557
vn -0.05409363 0.7277684 0.6836864
vn 0 -0.8707312 -0.4917592
vn -0.06649781 -0.7875201 -0.612691
vn 0.06649781 -0.7875201 -0.612691
vn -0.007349997 -0.8176817 -0.5756238
vn 0.007349967 -0.8176817 -0.5756238
vn 0.05409363 -0.7277684 -0.6836864
vn -0.05409359 -0.7277689 -0.6836859
v 0 0.244361 0.363771
vt 0.44052 0.896259
vn 1.80909E-05 -0.8938822 0.4483021
v -0.0426 0.275991 0.336773
vt 0.457433 0.913647
vn -0.7209439 -0.5877489 0.367139
v 0 0.235328 0.296593
vt 0.482605 0.891293
vn 5.349939E-05 -0.9910797 0.13327
v 0 0.281288 0.398496
vt 0.418766 0.916559
vn 3.68303E-05 -0.6579279 0.7530809
v 0.0426168 0.275991 0.336773
vn 0.7207357 -0.5879507 0.3672248
v -0.0505 0.301096 0.34165
vt 0.454378 0.927447
vn -0.7580479 -0.345944 0.5528889
v 0.0505379 0.301096 0.34165
vn 0.7577557 -0.3465008 0.5529408
v 0 0.565813 -0.0180503
vt 0.176791 0.0752996
vn 0.9962142 0.008262802 0.08653981
v 0 0.431309 0.0370824
vt 0.163313 0.0440005
vn 1 0 0
v 0 0.382551 -0.000552395
vt 0.172513 0.0326543
v 0 0.723195 0.00921324
vt 0.170126 0.111922
v 0 0.67332 -0.028315
vt 0.1793 0.100316
vn 0.9624611 0.0400808 0.268444
v 0.0159865 0.551085 -0.037886
vt 0.181639 0.0718724
vn 0.8656217 0.07444187 0.4951338
v 0.0636883 0.536302 -0.12194
vt 0.202187 0.0684323
vn 0.8848701 0.0674013 0.460936
v 0.0663455 0.61621 -0.13833
vt 0.206193 0.0870268
vn 0.8772204 0.06817043 0.4752232
v 0.0781082 0.511756 -0.153037
vt 0.209788 0.0627205
vn 0.9262109 0.0388009 0.3750039
v 0.0866103 0.56065 -0.178978
vt 0.21613 0.0740981
vn 0.9196649 0.04694499 0.389888
v 0.0820023 0.47284 -0.16057
vt 0.21163 0.0536647
vn 0.9350138 0.02508809 0.3537229
vn -0.9962142 -0.008262802 -0.08653981
vn -1 0 0
vn -0.9624611 -0.0400809 -0.268444
vn -0.8656217 -0.07444187 -0.4951338
vn -0.8848701 -0.0674013 -0.460936
vn -0.8772204 -0.06817043 -0.4752232
vn -0.9262109 -0.0388009 -0.3750039
vn -0.9196649 -0.04694499 -0.389888
vn -0.9350141 -0.025088 -0.353722
vn 0 0.9999993 0.00119869
v 0 0.09988431 -0.206079
vt 0.307134 0.0226654
v 0.0197565 0.0885748 -0.206079
vt 0.327855 0.0226654
vn 0.424425 -0.905409 -0.009892641
v -0.0197565 0.0885748 -0.206079
vt 0.286413 0.0226654
vn -0.4244242 -0.9054094 -0.009892644
v 0 0.08949021 -0.406079
vt 0.307134 0.102609
vn 0 -0.9607701 -0.277346
vn 0.615989 -0.774415 -0.144357
vn -0.6159912 -0.7744133 -0.144357
vn 0 -0.8798957 -0.4751669
vn 0 -0.9432777 -0.3320049
vn 0 -0.4415202 -0.8972513
vn 0 0.4611298 -0.8873327
vn 0 0.7028687 -0.7113197
vn 0 0.4808908 -0.8767806
vn 0 0.1906989 -0.9816486
vn 0 0.9443145 0.3290442
vn 0 0 1
o merged_0_0_node
g polygon_0
usemtl mat_body_mat_id
f 1/1/1 2/2/2 3/3/3
f 1/1/1 4/4/4 2/2/2
f 1/1/1 3/3/3 5/5/5
f 1/1/1 6/6/6 4/4/4
f 1/1/1 5/5/5 7/7/7
f 1/1/1 8/8/8 6/6/6
f 1/1/1 7/7/7 9/9/9
f 1/1/1 9/9/9 8/8/8
f 2/2/2 10/10/10 3/3/3
f 2/2/2 11/11/11 10/10/10
f 5/5/5 12/12/12 7/7/7
f 5/5/5 3/3/3 12/12/12
f 3/3/3 10/10/10 12/12/12
f 6/6/6 8/8/8 13/13/13
f 6/6/6 13/13/13 14/14/14
f 9/9/9 7/7/7 15/15/15
f 9/9/9 15/15/15 8/8/8
f 8/8/8 15/15/15 13/13/13
f 11/11/11 16/16/16 10/10/10
f 12/12/12 17/17/17 7/7/7
f 12/12/12 10/10/10 18/18/18
f 12/12/12 18/18/18 17/17/17
f 18/18/18 10/10/10 16/16/16
f 7/7/7 17/17/17 15/15/15
f 14/14/14 13/13/13 19/16/19
f 17/17/17 20/19/20 15/15/15
f 20/19/20 19/16/19 13/13/13
f 20/19/20 13/13/13 15/15/15
f 21/20/21 22/21/22 23/22/23
f 21/20/21 24/23/24 22/21/22
f 21/20/21 23/22/23 25/24/25
f 21/20/21 26/25/26 24/23/24
f 21/20/21 25/24/25 27/26/27
f 21/20/21 28/27/28 26/25/26
f 21/20/21 27/26/27 29/28/29
f 21/20/21 29/28/29 28/27/28
f 23/22/23 24/23/24 30/20/30
f 23/22/23 30/20/30 25/24/25
f 30/20/30 24/23/24 26/25/26
f 30/20/30 27/26/27 25/24/25
f 30/20/30 28/27/28 27/26/27
f 30/20/30 26/25/26 28/27/28
f 31/29/31 18/30/18 32/31/32
f 31/29/31 33/32/33 18/30/18
f 31/29/31 32/31/32 34/33/34
f 31/29/31 20/34/20 33/32/33
f 31/29/31 34/33/34 35/35/35
f 31/29/31 35/35/35 20/34/20
f 18/30/18 16/36/36 32/31/32
f 18/30/18 33/32/33 17/37/17
f 17/37/17 33/32/33 20/34/20
f 34/33/34 36/38/37 35/35/35
f 34/33/34 32/31/32 37/39/38
f 34/33/34 38/40/39 36/38/37
f 34/33/34 37/39/38 38/40/39
f 32/31/32 16/36/36 37/39/38
f 20/34/20 35/35/35 19/36/40
f 35/35/35 36/38/37 19/36/40
f 38/40/39 37/39/38 2/41/2
f 38/40/39 6/42/6 36/38/37
f 38/40/39 2/41/2 4/43/4
f 38/40/39 4/43/4 6/42/6
f 16/36/36 11/44/11 37/39/38
f 37/39/38 11/44/11 2/41/2
f 19/36/40 36/38/37 14/45/14
f 14/45/14 36/38/37 6/42/6
f 39/46/41 40/47/42 41/48/43
f 39/46/41 42/49/44 40/47/42
f 39/46/41 41/48/43 43/50/45
f 39/46/41 44/51/46 42/49/44
f 39/46/41 43/50/45 45/52/47
f 39/46/41 45/52/47 44/51/46
f 40/47/42 46/53/48 41/48/43
f 40/47/42 42/49/44 47/54/49
f 40/47/42 47/54/49 46/53/48
f 43/50/45 48/46/50 45/52/47
f 43/50/45 41/48/43 49/48/51
f 43/50/45 49/48/51 48/46/50
f 44/51/46 50/55/52 42/49/44
f 47/54/49 51/56/53 46/53/48
f 47/54/49 52/57/54 51/56/53
f 45/52/47 48/46/50 53/51/55
f 41/48/43 54/58/17 49/48/51
f 41/48/43 46/53/48 54/58/17
f 50/55/52 55/59/56 56/60/57
f 52/57/54 57/61/58 51/56/53
f 52/57/54 56/60/57 58/62/59
f 52/57/54 58/62/59 57/61/58
f 48/46/50 59/49/60 53/51/55
f 48/46/50 49/48/51 60/47/61
f 48/46/50 60/47/61 59/49/60
f 46/53/48 61/63/7 54/58/17
f 46/53/48 51/56/53 61/63/7
f 51/56/53 57/61/58 61/63/7
f 55/59/56 62/64/62 56/60/57
f 55/59/56 63/60/63 62/64/62
f 55/59/56 64/55/64 63/60/63
f 62/64/62 58/62/59 56/60/57
f 62/64/62 63/60/63 58/62/59
f 64/55/64 53/51/55 59/49/60
f 49/48/51 65/53/65 60/47/61
f 49/48/51 54/58/17 65/53/65
f 54/58/17 61/63/7 65/53/65
f 57/61/58 58/62/59 66/57/66
f 57/61/58 67/56/67 61/63/7
f 57/61/58 66/57/66 67/56/67
f 61/63/7 67/56/67 65/53/65
f 58/62/59 63/60/63 66/57/66
f 59/49/60 60/47/61 68/54/68
f 68/54/68 65/53/65 67/56/67
f 68/54/68 67/56/67 66/57/66
f 68/54/68 60/47/61 65/53/65
f 69/65/69 44/66/46 45/67/47
f 69/65/69 50/68/52 44/66/46
f 69/65/69 45/67/47 53/66/55
f 69/65/69 55/69/56 50/68/52
f 69/65/69 53/66/55 64/68/64
f 69/65/69 64/68/64 55/69/56
f 70/70/70 71/71/71 72/72/72
f 70/70/70 73/73/73 71/71/71
f 70/70/70 72/72/72 74/74/74
f 70/70/70 75/71/75 73/73/73
f 70/70/70 74/74/74 76/72/76
f 70/70/70 76/72/76 75/71/75
f 71/71/71 77/75/77 72/72/72
f 71/71/71 73/73/73 78/76/78
f 71/71/71 78/76/78 77/75/77
f 73/73/73 75/71/75 78/76/78
f 76/72/76 79/75/79 75/71/75
f 76/72/76 80/77/80 79/75/79
f 79/75/79 78/76/78 75/71/75
f 72/72/72 77/75/77 81/77/81
f 82/78/82 83/79/83 84/80/84
f 82/78/82 85/81/85 83/79/83
f 82/78/82 84/80/84 86/82/86
f 82/78/82 87/83/85 85/81/85
f 82/78/82 86/82/86 87/83/85
f 85/81/85 87/83/85 88/84/87
f 86/82/86 89/85/88 87/83/85
f 87/83/85 89/85/88 88/84/87
f 82/78/89 84/80/90 83/79/91
f 82/78/89 86/82/92 84/80/90
f 82/78/89 83/79/91 85/81/93
f 82/78/89 87/83/93 86/82/92
f 82/78/89 85/81/93 87/83/93
f 86/82/92 87/83/93 89/85/94
f 85/81/93 88/84/95 87/83/93
f 87/83/93 88/84/95 89/85/94
f 90/86/96 91/87/97 92/88/98
f 90/86/96 93/89/99 91/87/97
f 90/86/96 92/88/98 94/87/100
f 90/86/96 94/87/100 93/89/99
f 91/87/97 93/89/99 95/90/101
f 94/87/100 96/90/102 93/89/99
f 97/91/103 98/92/104 99/93/104
f 97/91/103 100/94/104 98/92/104
f 97/91/103 101/95/105 100/94/104
f 97/91/103 102/96/106 101/95/105
f 102/96/106 103/97/107 101/95/105
f 103/97/107 104/98/108 101/95/105
f 103/97/107 105/99/109 104/98/108
f 105/99/109 106/100/110 104/98/108
f 105/99/109 107/101/111 106/100/110
f 97/91/112 99/93/113 98/92/113
f 97/91/112 98/92/113 100/94/113
f 97/91/112 100/94/113 101/95/114
f 97/91/112 101/95/114 102/96/115
f 101/95/114 103/97/116 102/96/115
f 101/95/114 104/98/117 103/97/116
f 104/98/117 105/99/118 103/97/116
f 104/98/117 106/100/119 105/99/118
f 106/100/119 107/101/120 105/99/118
f 22/21/121 108/102/121 109/103/122
f 22/21/121 110/104/123 108/102/121
f 22/21/121 109/103/122 23/22/122
f 22/21/121 24/23/123 110/104/123
f 110/104/123 23/22/122 109/103/122
f 110/104/123 24/23/123 23/22/122
f 111/105/124 29/28/21 27/26/125
f 111/105/124 28/27/126 29/28/21
f 111/105/124 27/26/125 28/27/126
f 79/75/127 80/77/128 81/77/128
f 79/75/127 81/77/128 77/75/127
f 79/75/127 77/75/127 78/76/129
f 94/87/130 92/88/131 91/87/132
f 94/87/130 91/87/132 95/90/133
f 94/87/130 95/90/133 96/90/133
f 96/90/134 95/90/134 93/89/134
f 108/102/135 110/104/135 109/103/135
vt 1.09702 0.774245
v 0.135436 0.364114 0.296986
vt 0.365812 0.867683
vn 0.8380457 0.007765857 0.5455448
vt 0.193183 0.737929
vt 0.290714 1.01887
v -0.135436 0.364114 0.296986
vn -0.8380457 0.007765787 0.5455448
vt -0.0458351 0.867683
vt 1.09702 0.961122
o merged_1_0_node
g polygon_0
usemtl TEX_ANIM_EYE_mat_id
f 47/106/49 112/107/136 52/108/54
f 64/109/64 113/107/137 63/110/63
f 50/109/52 56/110/57 112/107/136
f 112/107/136 56/110/57 52/108/54
f 42/111/44 112/107/136 47/106/49
f 50/109/52 112/107/136 42/111/44
f 68/106/68 66/108/66 113/107/137
f 113/107/137 66/108/66 63/110/63
f 59/111/60 113/107/137 64/109/64
f 68/106/68 113/107/137 59/111/60
