mtllib Emolga.mtl
v -0.00750064 0.292421 -0.34465
vt 0.345346 0.354709
vn -0.9979655 -0.002805089 0.06369487
v 0.00750064 0.292421 -0.34465
vn 0.9979655 -0.002805089 0.06369487
v 0.00750064 0.33084 -0.250238
vt 0.316775 0.349819
vn 0.9416541 0.128576 0.311056
v 0 0.125252 -0.135771
vt 0.351431 0.25342
vn 0 -0.6794779 0.7336959
v -0.00750064 0.33084 -0.250238
vn -0.9416541 0.128576 0.311056
v -0.00750064 0.240073 -0.397234
vt 0.369171 0.35674
vn -0.9765314 -0.1871531 -0.106584
v -0.00750064 0.404213 -0.414377
vt 0.326137 0.355829
vn -0.9993771 0.023258 -0.0265425
v -0.00750064 0.323646 -0.414079
vt 0.342732 0.361484
vn -0.9991578 -0.005566289 -0.04065409
v 0.00750064 0.404213 -0.414377
vn 0.9993771 0.0232579 -0.0265425
v 0.00750064 0.240073 -0.397234
vn 0.9765314 -0.1871531 -0.106584
v 0.00750064 0.323646 -0.414079
vn 0.9991578 -0.005566289 -0.04065399
v 0 0.650774 -0.590977
vt 0.330744 0.369687
vn 0 0.9402485 0.3404889
v 0 0.497829 -0.582092
vt 0.338539 0.369733
vn 7.272839E-06 0.09492029 -0.9954849
v 0 0.388561 -0.56955
vt 0.354219 0.365687
vn 2.60292E-06 -0.09314961 -0.9956521
v -0.0608004 0.208621 -0.0601235
vt 0.182817 0.939131
vn -0.4955729 0.6454818 -0.5811719
v -0.114675 0.059003 -0.0522426
vt 0.172536 0.919113
vn -0.9861907 -0.145901 -0.07836337
v -0.1216018 0.1440275 0.02304817
vt 0.171215 0.939131
vn -0.9991578 -0.005567751 -0.0406515
v -0.0573374 0.121458 -0.130286
vt 0.183478 0.919113
vn -0.453104 0.342229 -0.8231501
v -0.0469362 0.238999 0.00331447
vt 0.185463 0.950386
vn -0.392789 0.904857 -0.164166
v 0.0608004 0.208621 -0.0601235
vt 0.206023 0.939131
vn 0.4955729 0.6454818 -0.5811719
v 0.0469363 0.238999 0.00331448
vt 0.203377 0.950386
vn 0.392789 0.904857 -0.164166
v -0.0938725 0.200134 0.0666225
vt 0.176506 0.951842
vn -0.6190147 0.7729117 0.139385
v -0.1675735 0.1234639 0.1496835
vt 0.162444 0.950122
vn -0.7490116 -0.6094713 0.2598584
v 0.0573374 0.121458 -0.130286
vt 0.205362 0.919113
vn 0.453105 0.342228 -0.82315
v 0 0.209594 0.0739692
vt 0.19442 0.953985
vn 0 0.819598 0.572939
v 0.1216018 0.1440276 0.02304829
vt 0.217625 0.939131
vn 0.9991579 -0.005565695 -0.04065172
v 0.0938725 0.200134 0.0666226
vt 0.212334 0.951842
vn 0.6190141 0.7729121 0.139386
v -0.0469363 0.167942 0.106209
vt 0.185463 0.951637
vn 0.00658241 0.483778 0.875166
v 0.114675 0.059003 -0.0522426
vt 0.216304 0.919113
vn 0.9861907 -0.145901 -0.07836308
v 0.0469362 0.167942 0.106209
vt 0.203377 0.951637
vn -0.00658242 0.483778 0.875166
v 0.1675736 0.1234643 0.1496823
vt 0.218421 0.950122
vn 0.7490157 -0.6094677 0.2598547
v -0.0608004 0.105315 0.126321
vt 0.588684 0.284522
vn -0.307501 -0.571037 0.761157
vt 0.56381 0.284522
v -0.0573374 0.00210003 0.0234034
vt 0.590101 0.238752
vn -0.430041 -0.7533291 0.4975541
vt 0.545006 0.309653
v 0.0573374 0.00210001 0.0234034
vt 0.637016 0.238752
vn 0.430041 -0.7533291 0.4975541
vt 0.594356 0.313116
v 0.0608004 0.105315 0.126321
vt 0.638433 0.284522
vn 0.307501 -0.571037 0.761157
vt 0.566644 0.238752
vt 0.663307 0.284522
v 0 0.0348788 -0.0693455
vt 0.613559 0.231654
vn 0 -0.8076049 -0.5897239
vt 0.660473 0.238752
vt 0.632761 0.313116
vt 0.613559 0.318484
vt 0.682111 0.309653
v 0.0843241 0.651308 0.124062
vt 0.894423 0.516749
vn -0.5099131 0.8596201 0.03227851
v 0.186622 0.64845 0.104205
vt 0.943973 0.525617
vn 0.8151546 0.5356787 0.2203889
v 0.13575 0.665232 0.06432359
vt 0.909229 0.545169
vn -0.006130613 0.8855365 -0.4645292
v 0.135197 0.634526 0.163944
vt 0.929167 0.497196
vn 0.5526849 0.3613719 0.7509658
v 0.0466896 0.545995 0.07183509
vt 0.849367 0.480064
vn -0.8181737 0.1245779 -0.5613128
v 0.0769802 0.564392 0.208294
vt 0.8993 0.443071
vn 0.3751579 -0.03042239 0.9264616
v 0.0365253 0.583215 0.16409
vt 0.864556 0.462623
vn -0.909606 0.355041 0.215784
v 0.197691 0.581419 0.06188009
vt 0.931828 0.506539
vn 0.982258 -0.0217573 -0.186268
v 0.00121214 0.40308 0.154226
vt 0.824249 0.395407
vn -0.797541 -0.591048 -0.120792
v 0.146818 0.598201 0.02199829
vt 0.897084 0.526092
vn 0.182788 0.304203 -0.9349059
v 0.123397 0.494034 0.008041781
vt 0.868922 0.477953
vn -0.07606365 -0.3411498 -0.9369264
v 0.17427 0.477252 0.04792359
vt 0.903667 0.458401
vn 0.8585013 -0.4919752 -0.144693
v 0.0593753 0.386298 0.189026
vt 0.858994 0.375855
vn -0.3645949 -0.9124268 0.185871
v 0.0994895 0.528578 0.113228
vt 0.344507 0.199558
vn 0.8100908 -0.11791 0.5743258
vt 0.414426 0.259473
vt 0.34514 0.301312
vt 0.428531 0.197457
vt 0.278531 0.263215
vt 0.345485 0.0663295
vn 0.8638647 0.02447949 0.5031288
vt 0.259443 0.198008
v -0.0843241 0.651308 0.124062
vn 0.5099131 0.8596201 0.0322782
v -0.13575 0.665232 0.06432359
vn 0.006130671 0.8855361 -0.4645301
v -0.186622 0.64845 0.104205
vn -0.8151552 0.5356781 0.2203881
v -0.0466896 0.545995 0.07183509
vn 0.8181737 0.1245779 -0.5613128
v -0.135197 0.634526 0.163944
vn -0.5526849 0.3613719 0.7509658
v -0.0365253 0.583215 0.16409
vn 0.9096062 0.3550411 0.215783
v -0.0769802 0.564392 0.208294
vn -0.3751579 -0.03042239 0.9264616
v -0.197691 0.581419 0.06188009
vn -0.982258 -0.0217572 -0.186268
v -0.146818 0.598201 0.02199829
vn -0.182788 0.304203 -0.9349059
v -0.00121214 0.40308 0.154226
vn 0.797541 -0.591048 -0.120792
v -0.0593753 0.386298 0.189026
vn 0.3645949 -0.9124268 0.185871
v -0.17427 0.477252 0.04792359
vn -0.8585013 -0.4919752 -0.144693
v -0.123397 0.494034 0.008041791
vn 0.07606395 -0.3411498 -0.9369264
v -0.0994895 0.528578 0.113228
vn -0.8100908 -0.11791 0.5743258
vn -0.8638647 0.02447949 0.5031288
v 0 0.195012 0.000579691
vt 0.892604 0.540798
vn 0 -0.8800511 -0.474879
v 0 0.175284 0.121272
vt 0.892604 0.503849
vn 0 -0.999977 -0.00678674
v -0.0994681 0.1914 0.121272
vt 0.848907 0.535829
vn -0.4267222 -0.8997495 -0.09142825
v 0.0994681 0.1914 0.121272
vt 0.936301 0.535829
vn 0.4267218 -0.8997496 -0.09142817
v -0.11598 0.254911 -0.0182235
vt 0.841653 0.623201
vn -0.598736 -0.5457711 -0.586216
v 0.11598 0.254911 -0.0182235
vt 0.943555 0.623201
vn 0.598736 -0.5457711 -0.586216
v 0 0.272535 -0.0626933
vt 0.892604 0.647446
vn 0 -0.258901 -0.9659039
v -0.171332 0.254911 0.121272
vt 0.817337 0.623201
vn -0.8566551 -0.4994571 -0.129169
v 0.171332 0.254911 0.121272
vt 0.967872 0.623201
vn 0.8566551 -0.4994571 -0.129169
v -0.124306 0.334181 -0.0274195
vt 0.837996 0.732251
vn -0.6962836 0.05208437 -0.7158746
v 0.124306 0.334181 -0.0274195
vt 0.947213 0.732251
vn 0.696283 0.0520844 -0.7158751
v 0 0.392082 -0.0553255
vt 0.892604 0.811905
vn 0 0.301415 -0.9534931
v -0.186862 0.326692 0.121272
vt 0.810514 0.721949
vn -0.9899158 0.04954269 -0.132711
v 0.186862 0.326692 0.121272
vt 0.974694 0.721949
vn 0.9899158 0.04954269 -0.132711
v -0.10825 0.413451 -0.0156614
vt 0.845049 0.841301
vn -0.5875407 0.5411668 -0.6016098
v 0.10825 0.413451 -0.0156614
vt 0.940159 0.841301
vn 0.5875407 0.5411668 -0.6016098
v 0 0.473218 0.00806837
vt 0.892604 0.923522
vn 0 0.8504289 -0.52609
v 0.0994681 0.486953 0.121272
vt 0.936301 0.942417
vn 0.4757769 0.8646948 -0.161057
v -0.0994681 0.486953 0.121272
vt 0.848907 0.942417
vn -0.4757769 0.8646948 -0.161057
v 0 0.503131 0.121272
vt 0.892604 0.964673
vn 0 0.9899304 -0.1415551
v 0.163592 0.413451 0.121272
vt 0.964471 0.841301
vn 0.8951376 0.4146638 -0.1636539
v -0.163592 0.413451 0.121272
vt 0.820737 0.841301
vn -0.8951376 0.4146638 -0.1636539
v 0 0.316623 0.315551
vt 0.00476056 0.450909
vn 0.00223154 -0.05860329 0.9982789
v -0.0652611 0.272237 0.28368
vt 0.217909 0.313608
vn -0.38862 -0.195079 0.9005102
v 0 0.239419 0.296306
vt 0.00476056 0.206422
vn 0 -0.6280062 0.7782083
v -0.0645726 0.306849 0.281584
vt 0.23448 0.470949
vn -0.433574 0.144683 0.889427
v 0.0652611 0.272237 0.28368
vn 0.373933 -0.231604 0.8980722
v 8.81612E-05 0.321407 0.306113
vt 0.00476056 0.518499
vn -0.0002181499 0.152673 0.9882768
v 0.0760966 0.306849 0.281584
vn 0.4101651 0.125585 0.9033233
v -0.129402 0.453182 0.183719
vt 0.569727 0.85971
vn -0.6291149 0.7020999 0.3335719
vt 0.993465 0.744766
v -0.155972 0.405509 0.183719
vt 0.569721 0.721746
vn -0.8718168 0.295213 0.3908769
vt 0.993465 0.957543
v -0.117826 0.397113 0.245715
vt 0.380182 0.698783
vn -0.5531669 0.2456029 0.7960438
v -0.0497341 0.489446 0.183009
vt 0.571847 0.96476
vn -0.284246 0.929208 0.236171
v -0.0878676 0.455675 0.230967
vt 0.426347 0.86693
vn -0.4484068 0.6112587 0.6521457
vt 0.993465 0.493614
vt 0.993465 1.00438
v 0 0.491939 0.215769
vt 0.472425 0.971978
vn 0 0.916626 0.399746
v -0.175554 0.320065 0.184784
vt 0.566459 0.47443
vn -0.9337496 0.04784398 0.3547149
vt 0.993465 0.466831
v 0.0497341 0.489446 0.183009
vn 0.284246 0.929208 0.236171
v 0.0878677 0.455675 0.230967
vt 0.426359 0.866913
vn 0.4288118 0.6270417 0.6503377
v -0.162715 0.249109 0.183284
vt 0.56649 0.450033
vn -0.8569942 -0.4398601 0.2684851
v -0.114995 0.217353 0.183284
vt 0.561553 0.432984
vn -0.4582458 -0.8620777 0.2164089
vt 0.993465 0.416101
v 0.129402 0.453182 0.183719
vn 0.6235123 0.7197903 0.3051791
v 0.12935 0.397113 0.245715
vt 0.380334 0.69869
vn 0.556843 0.261799 0.7882811
v 0 0.19341 0.235346
vt 0.204987 0.394042
vn 0 -0.9145843 0.4043952
vt 0.993465 0.384033
v 0.155972 0.405509 0.183719
vn 0.8895328 0.3184879 0.3275619
v 0.175554 0.320065 0.184784
vn 0.9545828 0.0330691 0.296105
v 0.114995 0.217353 0.183284
vn 0.4582458 -0.8620777 0.2164089
v 0.162715 0.249109 0.183284
vn 0.8541675 -0.4634287 0.2358639
v -0.1747187 0.110192 -0.01597005
vt 0.885363 0.11834
vn -0.09475229 0.7056186 -0.7022281
v -0.0993073 0.150525 0.0215207
vt 0.83557 0.165825
vn 0.6601948 0.7338428 -0.160055
v -0.0847527 0.0380115 -0.076652
vt 0.829077 0.0609459
vn 0.1334531 -0.6809534 0.7200643
v -0.1747188 0.1364101 0.03179061
vt 0.885363 0.165213
vn -0.3003594 0.9508824 -0.07487981
v -0.1747187 0.05435205 -0.05789115
vt 0.885363 0.0529564
vn -0.0838957 0.5982593 -0.7968986
v -0.2240476 0.08916151 -0.01956109
vt 0.941649 0.0821863
vn -0.3813276 0.7665559 -0.5167024
vt 0.878659 0.223411
vn -0.05178529 0.7760491 0.6285427
v -0.2278392 0.1110018 0.0655712
vt 0.935156 0.165825
vn -0.4360626 0.8998727 -0.008864089
v -0.1747188 0.09312207 0.006010063
vt 0.133895 0.118184
vn 0.2781002 -0.8413036 0.4635391
vt 0.133895 0.0967077
vn 0.08666803 -0.7140002 0.6947607
vt 0.11754 0.13378
vt 0.152382 0.106309
vn -0.1218099 -0.9180982 0.3771711
v -0.1747189 0.1240656 0.04768658
vt 0.133895 0.133579
vn 0.3474053 -0.9214216 0.1740456
vt 0.15025 0.13378
vn 0.1936432 -0.9703292 0.1447886
vt 0.115407 0.0993319
vt 0.131692 0.152695
v 0.1747188 0.1101922 -0.01596982
vn 0.09475431 0.7056196 -0.702227
v 0.0847527 0.0380115 -0.076652
vn -0.133453 -0.6809539 0.720064
v 0.0993073 0.150525 0.0215207
vn -0.6601948 0.7338428 -0.160055
v 0.1747187 0.05435237 -0.05789075
vn 0.08389765 0.5982604 -0.7968975
v 0.1747189 0.1364103 0.03179067
vn 0.3003617 0.9508816 -0.07487998
v 0.2240478 0.08916187 -0.01956086
vn 0.3813299 0.7665558 -0.5167007
vn 0.05179017 0.7760517 0.6285391
v 0.2278395 0.1110023 0.06557106
vn 0.436066 0.8998711 -0.008864779
v 0.1747189 0.09312232 0.006010223
vn -0.2781025 -0.8413035 0.4635378
vn -0.08667004 -0.7140011 0.6947595
v 0.174719 0.1240658 0.04768658
vn -0.3474075 -0.9214208 0.1740452
vn 0.1218084 -0.9180986 0.3771704
vn -0.193647 -0.9703284 0.1447883
v -0.130522 0.243306 0.245297
vt 0.39165 0.581319
vn -0.628315 -0.509254 0.588116
vt 0.456535 0.556514
vt 0.456535 0.579386
vt 0.399368 0.568417
vt 0.424092 0.595701
vt 0.375646 0.584203
v -0.134907 0.312985 0.247846
vt 0.386605 0.616183
vn -0.6607301 0.06872241 0.7474711
v 0.130522 0.243306 0.245297
vt 0.521421 0.581319
vn 0.6149591 -0.5456921 0.56925
vt 0.513702 0.568417
vt 0.42157 0.613133
vt 0.488978 0.595701
vt 0.537425 0.584203
vt 0.395097 0.658005
vt 0.369263 0.619477
v 0.146431 0.312985 0.247846
vt 0.526465 0.616183
vn 0.677092 0.045509 0.7344899
vt 0.4915 0.613133
vt 0.379117 0.661918
vt 0.543807 0.619477
vt 0.517854 0.657973
vt 0.533954 0.661918
v 0 0.455675 0.266918
vt 0.186885 0.868242
vn -0.000210674 0.540791 0.841157
vt 0.186885 0.987348
vt 0.0458326 0.868216
vt 0.327942 0.865488
v 8.81612E-05 0.397113 0.296176
vt 0.186887 0.402634
vn 0.0004454771 0.2409141 0.9705464
vt 0.0195011 0.40484
vt 0.354248 0.407048
vt 0.500499 -0.0127435
vt 0.400784 0.0852804
v -0.0744646 0.0294336 -0.0868128
vt 0.503866 0.0973822
vn -0.255073 -0.735432 -0.627756
vt 0.570759 0.0757486
v 0.0744646 0.0294336 -0.0868128
vn 0.255073 -0.735432 -0.627756
vt 0.575141 0.54024
vt 0.708121 0.568508
vt 0.716092 0.445603
vt 0.700754 0.634876
vt 0.708122 0.322698
vt 0.575141 0.350967
vt 0.700754 0.25633
vt 0.0698236 0.181614
vt 0.195154 0.0575982
vt 0.192263 0.19439
vt 0.0756053 0.0464121
o merged_0_0_node
g polygon_0
usemtl mat_body_mat_id
f 1/1/1 2/1/2 3/2/3
f 1/1/1 4/3/4 2/1/2
f 1/1/1 3/2/3 5/2/5
f 1/1/1 6/4/6 4/3/4
f 1/1/1 5/2/5 7/5/7
f 1/1/1 8/6/8 6/4/6
f 1/1/1 7/5/7 8/6/8
f 2/1/2 9/5/9 3/2/3
f 2/1/2 4/3/4 10/4/10
f 2/1/2 11/6/11 9/5/9
f 2/1/2 10/4/10 11/6/11
f 4/3/4 6/4/6 10/4/10
f 5/2/5 12/7/12 7/5/7
f 5/2/5 3/2/3 12/7/12
f 12/7/12 9/5/9 7/5/7
f 12/7/12 3/2/3 9/5/9
f 8/6/8 13/8/13 11/6/11
f 8/6/8 14/9/14 6/4/6
f 8/6/8 7/5/7 13/8/13
f 8/6/8 11/6/11 14/9/14
f 14/9/14 10/4/10 6/4/6
f 14/9/14 11/6/11 10/4/10
f 13/8/13 7/5/7 9/5/9
f 13/8/13 9/5/9 11/6/11
f 15/10/15 16/11/16 17/12/17
f 15/10/15 18/13/18 16/11/16
f 15/10/15 17/12/17 19/14/19
f 15/10/15 20/15/20 18/13/18
f 15/10/15 19/14/19 21/16/21
f 15/10/15 21/16/21 20/15/20
f 17/12/17 22/17/22 19/14/19
f 17/12/17 23/18/23 22/17/22
f 18/13/18 20/15/20 24/19/24
f 21/16/21 19/14/19 25/20/25
f 21/16/21 26/21/26 20/15/20
f 21/16/21 25/20/25 27/22/27
f 21/16/21 27/22/27 26/21/26
f 19/14/19 22/17/22 25/20/25
f 23/18/23 28/23/28 22/17/22
f 22/17/22 28/23/28 25/20/25
f 24/19/24 20/15/20 29/24/29
f 29/24/29 20/15/20 26/21/26
f 27/22/27 25/20/25 30/25/30
f 27/22/27 31/26/31 26/21/26
f 27/22/27 30/25/30 31/26/31
f 32/27/32 17/28/17 33/29/33
f 32/27/32 23/30/23 17/28/17
f 32/27/32 33/29/33 34/31/34
f 32/27/32 28/32/28 23/30/23
f 32/27/32 34/31/34 35/33/35
f 32/27/32 35/33/35 28/32/28
f 17/28/17 16/34/16 33/29/33
f 34/31/34 26/35/26 35/33/35
f 34/31/34 33/29/33 36/36/36
f 34/31/34 29/37/29 26/35/26
f 28/32/28 35/33/35 30/38/30
f 28/32/28 30/38/30 25/39/25
f 26/35/26 31/40/31 35/33/35
f 35/33/35 31/40/31 30/38/30
f 37/41/37 38/42/38 39/43/39
f 37/41/37 40/44/40 38/42/38
f 37/41/37 39/43/39 41/45/41
f 37/41/37 42/46/42 40/44/40
f 37/41/37 41/45/41 43/47/43
f 37/41/37 43/47/43 42/46/42
f 38/42/38 44/48/44 39/43/39
f 41/45/41 45/49/45 43/47/43
f 41/45/41 39/43/39 46/50/46
f 41/45/41 47/51/47 45/49/45
f 41/45/41 46/50/46 47/51/47
f 39/43/39 44/48/44 46/50/46
f 43/47/43 45/49/45 42/46/42
f 47/51/47 46/50/46 48/52/48
f 47/51/47 49/53/49 45/49/45
f 47/51/47 48/52/48 49/53/49
f 49/53/49 42/46/42 45/49/45
f 48/52/48 46/50/46 44/48/44
f 50/54/50 44/55/44 38/56/38
f 50/54/50 48/57/48 44/55/44
f 50/54/50 38/56/38 40/58/40
f 50/54/50 49/59/51 48/57/48
f 50/54/50 40/58/40 42/60/42
f 50/54/50 42/60/42 49/59/51
f 51/41/52 52/43/53 53/42/54
f 51/41/52 54/45/55 52/43/53
f 51/41/52 53/42/54 55/44/56
f 51/41/52 56/47/57 54/45/55
f 51/41/52 55/44/56 57/46/58
f 51/41/52 57/46/58 56/47/57
f 52/43/53 58/48/59 53/42/54
f 52/43/53 54/45/55 59/50/60
f 52/43/53 59/50/60 58/48/59
f 57/46/58 60/49/61 56/47/57
f 57/46/58 61/53/62 60/49/61
f 56/47/57 60/49/61 54/45/55
f 59/50/60 62/52/63 58/48/59
f 59/50/60 54/45/55 63/51/64
f 59/50/60 63/51/64 62/52/63
f 63/51/64 60/49/61 61/53/62
f 63/51/64 54/45/55 60/49/61
f 63/51/64 61/53/62 62/52/63
f 64/54/65 53/56/54 58/55/59
f 64/54/65 55/58/56 53/56/54
f 64/54/65 58/55/59 62/57/63
f 64/54/65 57/60/58 55/58/56
f 64/54/65 62/57/63 61/59/66
f 64/54/65 61/59/66 57/60/58
f 65/61/67 66/62/68 67/63/69
f 65/61/67 68/64/70 66/62/68
f 65/61/67 67/63/69 69/65/71
f 65/61/67 70/66/72 68/64/70
f 65/61/67 69/65/71 71/67/73
f 65/61/67 71/67/73 70/66/72
f 67/63/69 72/68/74 69/65/71
f 68/64/70 70/66/72 73/69/75
f 71/67/73 69/65/71 74/70/76
f 71/67/73 75/71/77 70/66/72
f 71/67/73 74/70/76 76/72/78
f 71/67/73 76/72/78 75/71/77
f 72/68/74 77/73/79 69/65/71
f 69/65/71 77/73/79 74/70/76
f 73/69/75 70/66/72 78/74/80
f 70/66/72 75/71/77 78/74/80
f 76/72/78 74/70/76 79/75/81
f 76/72/78 80/76/82 75/71/77
f 76/72/78 79/75/81 81/77/83
f 76/72/78 81/77/83 80/76/82
f 75/71/77 80/76/82 78/74/80
f 74/70/76 77/73/79 79/75/81
f 81/77/83 82/78/84 80/76/82
f 81/77/83 79/75/81 83/79/85
f 81/77/83 84/80/86 82/78/84
f 81/77/83 83/79/85 84/80/86
f 78/74/80 80/76/82 85/81/87
f 85/81/87 80/76/82 82/78/84
f 77/73/79 86/82/88 79/75/81
f 79/75/81 86/82/88 83/79/85
f 87/83/89 88/84/90 89/85/91
f 87/83/89 90/86/92 88/84/90
f 87/83/89 89/85/91 91/84/93
f 87/83/89 92/87/94 90/86/92
f 87/83/89 91/84/93 93/86/95
f 87/83/89 93/86/95 92/87/94
f 94/88/96 86/89/88 95/90/97
f 94/88/96 83/91/85 86/89/88
f 94/88/96 95/90/97 96/92/98
f 94/88/96 97/93/99 83/91/85
f 94/88/96 96/92/98 98/94/100
f 94/88/96 98/94/100 97/93/99
f 86/89/88 77/95/79 95/90/97
f 83/91/85 97/93/99 84/96/86
f 98/94/100 99/97/101 97/93/99
f 97/93/99 99/97/101 84/96/86
f 77/95/79 100/98/102 95/90/97
f 77/95/79 72/99/74 100/98/102
f 99/97/101 101/93/103 84/96/86
f 99/97/101 102/100/104 101/93/103
f 72/99/74 103/101/105 100/98/102
f 72/99/74 104/102/106 103/101/105
f 72/99/74 67/103/69 104/102/106
f 84/96/86 101/93/103 82/91/84
f 102/100/104 105/88/107 101/93/103
f 102/100/104 106/104/108 105/88/107
f 101/93/103 105/88/107 82/91/84
f 67/103/69 107/105/109 104/102/106
f 67/103/69 66/106/68 107/105/109
f 106/104/108 108/90/110 105/88/107
f 82/91/84 105/88/107 85/89/87
f 105/88/107 108/90/110 85/89/87
f 66/106/68 68/103/70 107/105/109
f 108/90/110 78/95/80 85/89/87
f 108/90/110 109/98/111 78/95/80
f 68/103/70 110/102/112 107/105/109
f 68/103/70 73/99/75 110/102/112
f 78/95/80 109/98/111 73/99/75
f 110/102/112 73/99/75 111/101/113
f 111/101/113 73/99/75 109/98/111
f 112/107/114 113/108/115 114/109/116
f 112/107/114 115/110/117 113/108/115
f 112/107/114 114/109/116 116/111/118
f 112/107/114 117/112/119 115/110/117
f 112/107/114 116/111/118 117/112/119
f 113/108/115 115/110/117 23/113/120
f 117/112/119 118/114/121 115/110/117
f 115/110/117 118/114/121 23/113/120
f 119/115/122 116/116/123 113/117/115
f 119/115/122 117/118/124 116/116/123
f 119/115/122 113/117/115 120/119/125
f 119/115/122 118/120/126 117/118/124
f 119/115/122 120/119/125 118/120/126
f 116/116/123 114/121/116 113/117/115
f 120/119/125 23/122/120 118/120/126
f 120/119/125 113/117/115 23/122/120
f 121/107/127 122/109/128 123/108/129
f 121/107/127 124/111/130 122/109/128
f 121/107/127 123/108/129 125/110/131
f 121/107/127 126/112/132 124/111/130
f 121/107/127 125/110/131 126/112/132
f 123/108/129 31/113/133 125/110/131
f 126/112/132 125/110/131 127/114/134
f 127/114/134 125/110/131 31/113/133
f 128/115/135 123/117/129 124/116/136
f 128/115/135 129/119/137 123/117/129
f 128/115/135 124/116/136 126/118/138
f 128/115/135 127/120/139 129/119/137
f 128/115/135 126/118/138 127/120/139
f 123/117/129 122/121/128 124/116/136
f 123/117/129 129/119/137 31/122/133
f 31/122/133 129/119/137 127/120/139
f 130/123/140 107/124/109 89/125/91
f 130/123/140 104/126/106 107/124/109
f 130/123/140 89/125/91 88/127/90
f 130/123/140 103/128/105 104/126/106
f 130/123/140 88/127/90 131/129/141
f 107/124/109 132/130/142 89/125/91
f 107/124/109 110/131/112 132/130/142
f 88/127/90 90/132/92 131/129/141
f 89/125/91 132/130/142 91/133/93
f 110/131/112 111/134/113 132/130/142
f 131/129/141 96/135/98 100/136/102
f 91/133/93 132/130/142 133/137/143
f 91/133/93 133/137/143 93/138/95
f 96/135/98 95/139/97 100/136/102
f 133/137/143 109/140/111 106/141/108
f 109/140/111 108/142/110 106/141/108
f 134/143/144 99/144/101 98/145/100
f 134/143/144 102/146/104 99/144/101
f 134/143/144 98/145/100 135/147/145
f 134/143/144 135/147/145 102/146/104
f 98/145/100 96/148/98 135/147/145
f 102/146/104 135/147/145 106/149/108
f 18/150/18 24/150/24 36/151/36
f 18/150/18 36/151/36 136/152/146
f 18/150/18 136/152/146 16/153/16
f 24/150/24 137/152/147 36/151/36
f 24/150/24 29/153/29 137/152/147
f 33/154/33 136/155/146 36/156/36
f 33/154/33 16/157/16 136/155/146
f 36/156/36 137/158/147 34/159/34
f 137/158/147 29/160/29 34/159/34
f 133/161/143 111/162/113 109/163/111
f 133/161/143 132/164/142 111/162/113
f 103/162/105 131/161/141 100/163/102
f 103/162/105 130/164/140 131/161/141
vt 0.11722 0.784503
vt 1.23673 0.803254
vt 0.253675 0.971781
vt 1.23673 0.971781
vt 0.679101 0.770845
o merged_1_0_node
g polygon_0
usemtl TEX_ANIM_EYE_mat_id
f 131/165/141 92/166/94 96/167/98
f 96/167/98 92/166/94 135/168/145
f 135/168/145 92/166/94 106/167/108
f 106/167/108 92/166/94 133/165/143
f 92/166/94 93/169/95 133/165/143
f 92/166/94 131/165/141 90/169/92
