mtllib Kricketune_M.mtl
v -0.0773448 0.0552597 -0.116499
vt 0.831401 0.149071
vn -0.4043908 -0.3980018 -0.8234456
v 0.0770325 0.129472 -0.11935
vt 1.16792 0.384832
vn 0.4549221 0.15574 -0.8768072
v 0.0773451 0.0552597 -0.116499
vt 1.1686 0.149071
vn 0.4043911 -0.3980021 -0.8234453
v -0.0770322 0.129472 -0.11935
vt 0.832083 0.384832
vn -0.4549221 0.15574 -0.8768072
v 0 0.0230818 0
vt 1 0.0733276
vn 0 -1 0.000215038
v -0.146516 0.129472 0
vt 0.68062 0.384832
vn -0.9568373 -0.01929391 -0.2899831
v -0.0784892 7.450581E-09 0
vt 0.828907 0
vn -0.1874839 -0.9822676 -0.0003647819
v -0.148306 0.0552597 0
vt 0.676718 0.149071
vn -0.9667024 -0.2559031 -0.0002577591
v 0.146516 0.129472 0
vt 1.31938 0.384832
vn 0.9568374 -0.01929369 -0.2899828
v 0.0539299 0.296541 -0.0804673
vt 1.10494 0.94207
vn 0.4254281 0.372213 -0.8249051
v -0.0539296 0.296541 -0.0804674
vt 0.895059 0.94207
vn -0.4254281 0.372213 -0.8249051
v 0.0784892 7.450581E-09 0
vt 1.17109 0
vn 0.1874839 -0.9822676 -0.0003647209
v 0.10786 0.296541 0.000125111
vt 1.20988 0.94207
vn 0.7666781 0.5028511 -0.3991811
v 0 0.314776 0
vt 1 1
vn 0 0.9997165 -0.02380959
v -0.107859 0.296541 0.000125111
vt 0.790118 0.94207
vn -0.7666778 0.5028509 -0.3991819
v -0.229375 0.220803 0.136424
vt 0.5 0.701461
vn -0.8343731 0.111281 0.5398501
v 0.148306 0.0552597 0
vt 1.32328 0.149071
vn 0.9667022 -0.255904 -0.000257377
v 0.229375 0.220803 0.136424
vt 1.5 0.701461
vn 0.8343731 0.111281 0.5398501
v -0.0773448 0.0552597 0.114962
vt -0.168599 0.149071
vn -0.5177801 -0.495438 0.6974561
vt -0.31938 0.384832
vt -0.323282 0.149071
v -0.0770322 0.129472 0.115456
vt -0.167917 0.384832
vn -0.3435299 -0.1411199 0.9284786
vt -0.171093 0
v 0 0.129472 0.115456
vt 0 0.384832
vn 0 0.123707 0.9923188
vt 0 0.0733276
v 0.0773451 0.0552597 0.114962
vt 0.168599 0.149071
vn 0.5177801 -0.495438 0.6974561
vt -0.5 0.701461
v 0.0770325 0.129472 0.115456
vt 0.167918 0.384832
vn 0.3435299 -0.141119 0.9284787
vt 0.171093 0
v -0.0539296 0.296541 0.0789246
vt -0.104941 0.94207
vn -0.03990201 0.6575001 0.7523971
vt 0.31938 0.384832
v 0.0539299 0.296541 0.0789246
vt 0.104942 0.94207
vn 0.0399021 0.6575001 0.7523971
vt 0.323283 0.149071
vt -0.209882 0.94207
vt 0.209883 0.94207
v 0.123992 0.613291 -0.131007
vt 0.589982 0.835657
vn 0.5906899 0.5953449 -0.5446559
v 0.171762 0.497245 -0.119491
vt 0.603585 0.806964
vn 0.8791203 0.006750292 -0.4765522
v 0.0771937 0.497245 -0.211973
vt 0.579062 0.806964
vn 0.3790569 0.00167356 -0.9253719
v 0.192908 0.568965 0
vt 0.607652 0.824698
vn 0.9473267 0.3101169 0.07999857
v 0 0.60309 -0.193341
vt 0.561393 0.833135
vn 0 0.5661762 -0.8242843
v 0.116648 0.668506 0
vt 0.587469 0.84931
vn 0.5336998 0.8451857 0.02873509
v 0 0.685011 -0.0809666
vt 0.561393 0.853391
vn 0 0.9461909 -0.323609
v 0.12789 0.381199 -0.131007
vt 0.589982 0.778271
vn 0.6000231 -0.5947691 -0.5349971
v 0.189886 0.425524 0
vt 0.607652 0.789231
vn 0.9390762 -0.333829 0.08181722
v -0.123992 0.613291 -0.131007
vt 0.532803 0.835657
vn -0.5906899 0.5953449 -0.5446559
v -0.0771937 0.497245 -0.211973
vt 0.543724 0.806964
vn -0.3790569 0.0016736 -0.9253719
v 0.101871 0.613291 0.131007
vt 0.587867 0.835657
vn 0.5703457 0.5499977 0.6100887
v 0 0.685011 0.0809666
vn 0 0.943806 0.3305
v 0.111665 0.325983 0
vt 0.587469 0.764619
vn 0.5323499 -0.8445329 0.05803219
v 0.108327 0.39765 0.145962
vt 0.587867 0.782339
vn 0.623214 -0.532502 0.572753
v 0 0.391399 -0.193341
vt 0.561393 0.780793
vn 0 -0.5676548 -0.8232667
v -0.116648 0.668506 0
vt 0.535316 0.84931
vn -0.5336998 0.8451857 0.02873509
v -0.171762 0.497245 -0.119491
vt 0.5192 0.806964
vn -0.8791203 0.006750272 -0.4765522
v -0.192908 0.568965 0
vt 0.515134 0.824698
vn -0.9473267 0.3101169 0.07999857
v 0 0.60309 0.171727
vn 0 0.5265982 0.8501143
v 0 0.309478 0.0809666
vt 0.561393 0.760538
vn 0 -0.9425338 0.3341109
v 0 0.391399 0.210827
vn 0 -0.5740208 0.8188407
v 0 0.309478 -0.0809666
vn 0 -0.9450365 -0.3269649
v -0.12789 0.381199 -0.131007
vt 0.532803 0.778271
vn -0.6000231 -0.5947691 -0.5349971
v -0.101871 0.613291 0.131007
vt 0.534919 0.835657
vn -0.5703457 0.5499977 0.6100887
v -0.189886 0.425524 0
vt 0.515134 0.789231
vn -0.9390762 -0.333829 0.08181722
v -0.108327 0.39765 0.145962
vt 0.534919 0.782339
vn -0.623214 -0.532502 0.572753
v -0.111665 0.325983 0
vt 0.535316 0.764619
vn -0.5323499 -0.8445329 0.05803209
v 0.130109 0.295893 0.18954
vt 0.510926 0.183711
vn 0.281513 -0.211308 -0.9360018
v 0.149572 0.262993 0.226093
vt 0.563829 0.110515
vn 0.8357069 -0.5458319 0.06051119
v 0.105683 0.233334 0.226304
vt 0.44453 0.0312808
vn -0.1704171 -0.9692495 -0.1775201
v 0.167481 0.327613 0.222294
vt 0.612508 0.254282
vn 0.9954243 0.09017223 0.03161551
v 0.0836047 0.270128 0.215203
vt 0.384517 0.126388
vn -0.9276998 -0.3137949 -0.202252
v 0.138177 0.361838 0.216489
vt 0.532856 0.379844
vn 0.2977641 0.8728552 -0.3866011
v 0.100312 0.334539 0.188351
vt 0.423562 0.256315
vn -0.2550409 0.1988169 -0.9462695
v 0.115805 0.273656 0.256019
vt 0.472045 0.134239
vn -0.08534828 -0.2401169 0.9669847
v 0.130777 0.345422 0.257385
vt 0.51274 0.293902
vn 0.1923139 0.3367308 0.9217526
v 0.097969 0.336764 0.235465
vn -0.4991303 0.3213562 0.8047355
v 0.066407 0.436203 0.210856
vt 0.383608 0.345545
vn -0.561274 0.7819369 -0.271194
v -0.130107 0.295893 0.18954
vn -0.281513 -0.211308 -0.9360018
v -0.105681 0.233334 0.226304
vn 0.1704171 -0.9692494 -0.1775211
v -0.14957 0.262993 0.226093
vn -0.8357069 -0.5458319 0.06051069
v -0.0836026 0.270128 0.215203
vn 0.9006005 -0.3329558 -0.2793908
v -0.167479 0.327613 0.222294
vn -0.9954243 0.09017223 0.03161561
v -0.10031 0.334539 0.188351
vn 0.1745649 0.3161128 -0.9325234
v -0.138175 0.361838 0.216489
vn -0.12546 0.9366733 -0.3269601
v -0.115803 0.273656 0.256019
vn -0.0166552 -0.257199 0.966215
v -0.130775 0.345422 0.257385
vn -0.11669 0.426659 0.8968531
v -0.0664048 0.436203 0.210856
vn 0.0332632 0.92634 -0.375217
v -0.0979669 0.315424 0.235465
vn 0.583832 0.2377959 0.7762689
v 0.228714 0.161695 0.148486
vt 0.414001 0.810634
vn 0.03551298 0.005404948 -0.9993546
v 0.218597 0.231701 0.17827
vt 0.401873 0.843001
vn -0.9707885 0.005401507 0.2398759
v 0.228714 0.231701 0.138708
vt 0.414001 0.843001
vn 0 -0.109649 -0.9939704
v 0.218836 0.161695 0.183054
vt 0.402159 0.810634
vn -0.9350041 -0.0597582 0.349566
v 0.238831 0.231701 0.17827
vt 0.426129 0.843001
vn 0.9707885 0.005401317 0.2398759
v 0.212704 0.05368131 0.130429
vt 0.394809 0.760696
vn -0.9448782 0.185192 -0.2700171
v 0.238593 0.161695 0.183054
vt 0.425843 0.810634
vn 0.9373696 -0.1383379 0.3196889
vn 0.9570562 -0.09613612 -0.2734981
vn 1.00436E-06 -0.43799 0.8989799
v -0.2287 0.161695 0.148486
vt 0.455592 0.810293
vn -0.03551398 0.005405537 -0.9993545
v -0.238817 0.231701 0.17827
vt 0.443646 0.841402
v -0.2287 0.231701 0.138708
vt 0.455592 0.841402
v -0.238579 0.161695 0.183054
vt 0.443927 0.810293
vn -0.9373695 -0.1383389 0.3196888
v -0.218583 0.231701 0.17827
vt 0.467538 0.841402
v -0.21269 0.05368131 0.130429
vt 0.474497 0.762295
vn -0.9570562 -0.09613612 -0.2734981
v -0.218821 0.161695 0.183054
vt 0.467257 0.810293
vn 0.9350041 -0.0597584 0.349566
vn 0.9448782 0.185192 -0.2700171
v 0 0.296541 0.0789246
vt 0.00845934 0.940674
vt 0.113401 0.940674
vt 0.00845934 0.383436
vt 0.0084591 0.998603
vt 0.176377 0.383436
vt 0.218342 0.940674
v 0 0.497245 0.205262
vt 0.813261 0.680922
vn 0 0.1772301 0.9841694
vt 0.782269 0.437151
v 0.0714549 0.497245 0.182613
vt 0.967864 0.658624
vn 0.4828189 0.101272 0.8698448
v -0.0714549 0.497245 0.182613
vn -0.4828189 0.101272 0.8698448
vt 0.844253 0.924693
vt 1.02362 0.418451
vt 1.07189 0.916981
v -0.00135486 0.417432 0.167269
vt 0.434859 0.953566
vn 0 -0.2369339 -0.9715258
v -0.0656858 0.438542 0.222674
vt 0.39751 0.967036
vn -0.9938543 -0.106807 -0.02908571
v -0.00135485 0.45259 0.222674
vt 0.434859 0.976001
vn 0 0.986573 -0.163321
v -0.00135486 0.362027 0.222674
vt 0.434859 0.918212
vn 0 -0.9998266 0.01862289
v 0.062976 0.438542 0.222674
vt 0.472207 0.967036
vn 0.9938543 -0.106807 -0.02908551
v -0.00135486 0.43228 0.256482
vt 0.434859 0.963041
vn 0 -0.0903183 0.995913
v -0.1508583 0.763058 -0.0001460255
vt 0.641988 0.992056
vn -0.3136174 0.9495494 -0.0004742516
v -0.120605 0.649401 -0.0354548
vt 0.66852 0.897672
vn -0.5124432 0.127419 -0.8492152
v -0.120605 0.649401 0.0354548
vn -0.5122439 0.12959 0.8490068
v -0.0591953 0.674894 0
vt 0.722377 0.918842
vn 0.6932198 0.7207258 0.0008210617
v 0.1508643 0.763058 -0.0001460389
vt 0.601872 0.965735
vn 0.3136165 0.9495496 -0.0004764667
v 0.12061 0.649401 0.0354548
vt 0.579848 0.900388
vn 0.5122432 0.12959 0.8490073
v 0.12061 0.649401 -0.0354548
vn 0.5124419 0.12742 -0.8492158
v 0.059201 0.674894 0
vt 0.53514 0.915045
vn -0.6932203 0.7207253 0.0008200243
v 0.2920422 0.335671 -0.1134518
vt 0.964662 0.882314
vn 0.9155701 0.00771118 -0.4020843
v 0.1996617 0.819441 0.0250443
vt 0.91722 0.973172
vn 0.9809092 0.1528898 0.120174
v 0.1654444 0.781046 -7.361784E-09
vt 0.899646 0.959334
vn -0.9414395 -0.3044786 0.1448601
v 0.1809985 0.8439171 -0.02504432
vt 0.907635 0.981994
vn 0.7238055 0.2686679 -0.6355495
v -0.2920752 0.335671 -0.1134517
vt 0.651498 0.897143
vn -0.9155629 0.007712777 -0.4021007
v -0.1654774 0.781046 7.363251E-09
vt 0.704394 0.957795
vn 0.9414395 -0.3044786 0.14486
v -0.1996947 0.819441 0.02504432
vt 0.690096 0.968692
vn -0.9809092 0.1528898 0.1201741
v -0.1810315 0.8439171 -0.0250443
vt 0.697894 0.975638
vn -0.7238055 0.2686679 -0.6355494
v -0.104824 0.241515 -0.113621
vt 0.488841 0.471684
vn -0.1859771 0.4212402 -0.8876763
v -0.0152266 0.277294 -0.115414
vt 0.46395 0.434346
v -0.0143429 0.190194 -0.156932
vt 0.488841 0.397009
v -0.0586997 0.128754 -0.176794
vt 0.513733 0.397009
v -0.149181 0.180075 -0.133484
vt 0.513733 0.471684
v -0.148297 0.0929748 -0.175002
vt 0.538625 0.434346
v 0.10482 0.241515 -0.113621
vt 0.488111 0.460124
vn 0.1859771 0.4212402 -0.8876763
v 0.0143392 0.190194 -0.156932
vt 0.488111 0.388792
v 0.015223 0.277294 -0.115414
vt 0.464334 0.424458
v 0.058696 0.128754 -0.176794
vt 0.511889 0.388792
v 0.149177 0.180075 -0.133484
vt 0.511889 0.460124
v 0.148293 0.0929748 -0.175002
vt 0.535666 0.424458
vn 0.1859771 -0.4212402 0.8876763
vn -0.1859771 -0.4212402 0.8876763
vt 0.921203 0.2792
vt 0.957236 0.352787
vt 0.965552 0.2792
vt 0.929519 0.352787
vn 0 1 0
vn -0.7863927 0.3865031 0.4818734
vn 0.7863927 0.3865031 0.4818734
o merged_0_0_node
g polygon_0
usemtl mat_body_mat_id
f 1/1/1 2/2/2 3/3/3
f 1/1/1 4/4/4 2/2/2
f 1/1/1 3/3/3 5/5/5
f 1/1/1 6/6/6 4/4/4
f 1/1/1 5/5/5 7/7/7
f 1/1/1 8/8/8 6/6/6
f 1/1/1 7/7/7 8/8/8
f 2/2/2 9/9/9 3/3/3
f 2/2/2 10/10/10 9/9/9
f 4/4/4 6/6/6 11/11/11
f 5/5/5 3/3/3 12/12/12
f 10/10/10 13/13/13 9/9/9
f 10/10/10 11/11/11 14/14/14
f 10/10/10 14/14/14 13/13/13
f 6/6/6 15/15/15 11/11/11
f 6/6/6 16/16/16 15/15/15
f 15/15/15 14/14/14 11/11/11
f 3/3/3 17/17/17 12/12/12
f 3/3/3 9/9/9 17/17/17
f 13/13/13 18/18/18 9/9/9
f 19/19/19 6/20/6 8/21/8
f 19/19/19 20/22/20 6/20/6
f 19/19/19 8/21/8 7/23/7
f 19/19/19 21/24/21 20/22/20
f 19/19/19 7/23/7 5/25/5
f 19/19/19 22/26/22 21/24/21
f 19/19/19 5/25/5 22/26/22
f 6/20/6 20/22/20 16/27/16
f 21/24/21 22/26/22 23/28/23
f 5/25/5 12/29/12 22/26/22
f 20/22/20 24/30/24 16/27/16
f 23/28/23 22/26/22 9/31/9
f 23/28/23 9/31/9 18/16/18
f 23/28/23 18/16/18 25/32/25
f 12/29/12 17/33/17 22/26/22
f 22/26/22 17/33/17 9/31/9
f 24/30/24 15/34/15 16/27/16
f 18/16/18 13/35/13 25/32/25
f 26/36/26 27/37/27 28/38/28
f 26/36/26 29/39/29 27/37/27
f 26/36/26 28/38/28 30/40/30
f 26/36/26 31/41/31 29/39/29
f 26/36/26 30/40/30 32/42/32
f 26/36/26 32/42/32 31/41/31
f 27/37/27 33/43/33 28/38/28
f 27/37/27 29/39/29 34/44/34
f 27/37/27 34/44/34 33/43/33
f 30/40/30 35/45/35 32/42/32
f 30/40/30 28/38/28 36/46/36
f 30/40/30 36/46/36 35/45/35
f 31/41/31 37/47/37 29/39/29
f 31/41/31 32/42/32 38/42/38
f 31/41/31 38/42/38 37/47/37
f 34/44/34 39/48/39 33/43/33
f 34/44/34 40/49/40 39/48/39
f 28/38/28 41/50/41 36/46/36
f 28/38/28 33/43/33 41/50/41
f 35/45/35 42/51/42 32/42/32
f 35/45/35 36/46/36 43/52/43
f 35/45/35 44/53/44 42/51/42
f 35/45/35 43/52/43 44/53/44
f 32/42/32 42/51/42 38/42/38
f 37/47/37 38/42/38 45/40/45
f 40/49/40 46/54/46 39/48/39
f 40/49/40 47/50/47 46/54/46
f 33/43/33 48/54/48 41/50/41
f 33/43/33 39/48/39 48/54/48
f 39/48/39 46/54/46 48/54/48
f 36/46/36 49/55/49 43/52/43
f 36/46/36 41/50/41 49/55/49
f 41/50/41 48/54/48 49/55/49
f 44/53/44 50/56/50 42/51/42
f 44/53/44 43/52/43 51/57/51
f 50/56/50 45/40/45 38/42/38
f 50/56/50 38/42/38 42/51/42
f 43/52/43 49/55/49 51/57/51
f 47/50/47 52/58/52 46/54/46
f 48/54/48 53/59/53 49/55/49
f 48/54/48 46/54/46 53/59/53
f 53/59/53 51/57/51 49/55/49
f 53/59/53 46/54/46 52/58/52
f 53/59/53 52/58/52 51/57/51
f 54/60/54 55/61/55 56/62/56
f 54/60/54 57/63/57 55/61/55
f 54/60/54 56/62/56 58/64/58
f 54/60/54 59/65/59 57/63/57
f 54/60/54 58/64/58 60/66/60
f 54/60/54 60/66/60 59/65/59
f 55/61/55 61/67/61 56/62/56
f 55/61/55 57/63/57 62/68/62
f 55/61/55 62/68/62 61/67/61
f 57/63/57 59/65/59 62/68/62
f 56/62/56 61/67/61 58/64/58
f 60/66/60 63/66/63 59/65/59
f 60/66/60 58/64/58 64/69/64
f 60/66/60 64/69/64 63/66/63
f 63/66/63 61/67/61 62/68/62
f 63/66/63 62/68/62 59/65/59
f 63/66/63 58/64/58 61/67/61
f 63/66/63 64/69/64 58/64/58
f 65/60/65 66/62/66 67/61/67
f 65/60/65 68/64/68 66/62/66
f 65/60/65 67/61/67 69/63/69
f 65/60/65 70/66/70 68/64/68
f 65/60/65 69/63/69 71/65/71
f 65/60/65 71/65/71 70/66/70
f 66/62/66 72/67/72 67/61/67
f 66/62/66 68/64/68 72/67/72
f 69/63/69 73/68/73 71/65/71
f 69/63/69 67/61/67 73/68/73
f 67/61/67 72/67/72 73/68/73
f 70/66/70 74/69/74 68/64/68
f 70/66/70 71/65/71 75/66/75
f 70/66/70 75/66/75 74/69/74
f 75/66/75 73/68/73 72/67/72
f 75/66/75 72/67/72 68/64/68
f 75/66/75 71/65/71 73/68/73
f 75/66/75 68/64/68 74/69/74
f 76/70/76 77/71/77 78/72/78
f 76/70/76 79/73/79 77/71/77
f 76/70/76 78/72/78 80/74/80
f 76/70/76 81/75/81 79/73/79
f 76/70/76 80/74/80 82/76/82
f 76/70/76 82/76/82 81/75/83
f 77/71/77 79/73/79 82/76/82
f 77/71/77 82/76/82 80/74/80
f 79/73/79 81/75/84 82/76/82
f 83/77/85 84/78/77 85/79/78
f 83/77/85 86/80/86 84/78/77
f 83/77/85 85/79/78 87/81/80
f 83/77/85 88/82/87 86/80/86
f 83/77/85 87/81/80 89/83/88
f 83/77/85 89/83/88 88/82/89
f 84/78/77 86/80/86 89/83/88
f 84/78/77 89/83/88 87/81/80
f 86/80/86 88/82/84 89/83/88
f 90/84/45 24/85/24 21/86/21
f 90/84/45 14/87/14 24/85/24
f 90/84/45 21/86/21 25/85/25
f 90/84/45 25/85/25 14/87/14
f 24/85/24 20/88/20 21/86/21
f 24/85/24 14/87/14 15/89/15
f 25/85/25 21/86/21 23/88/23
f 25/85/25 13/89/13 14/87/14
f 91/90/90 47/91/47 92/92/91
f 91/90/90 93/92/92 47/91/47
f 91/90/90 92/92/91 45/93/45
f 91/90/90 45/93/45 93/92/92
f 47/91/47 40/94/40 92/92/91
f 47/91/47 93/92/92 52/94/52
f 45/93/45 92/92/91 37/95/37
f 45/93/45 50/95/50 93/92/92
f 94/96/93 95/97/94 96/98/95
f 94/96/93 97/99/96 95/97/94
f 94/96/93 96/98/95 98/100/97
f 94/96/93 98/100/97 97/99/96
f 95/97/94 99/101/98 96/98/95
f 95/97/94 97/99/96 99/101/98
f 99/101/98 97/99/96 98/100/97
f 99/101/98 98/100/97 96/98/95
f 100/102/99 101/103/100 102/103/101
f 100/102/99 103/104/102 101/103/100
f 100/102/99 102/103/101 103/104/102
f 104/105/103 105/106/104 106/106/105
f 104/105/103 107/107/106 105/106/104
f 104/105/103 106/106/105 107/107/106
f 108/108/107 109/109/108 110/110/109
f 108/108/107 111/111/110 109/109/108
f 108/108/107 110/110/109 111/111/110
f 112/112/111 113/113/112 114/114/113
f 112/112/111 115/115/114 113/113/112
f 112/112/111 114/114/113 115/115/114
f 116/116/115 117/117/115 118/118/115
f 116/116/115 118/118/115 119/119/115
f 116/116/115 119/119/115 120/120/115
f 119/119/115 121/121/115 120/120/115
f 122/122/116 123/123/116 124/124/116
f 122/122/116 125/125/116 123/123/116
f 122/122/116 126/126/116 125/125/116
f 126/126/116 127/127/116 125/125/116
f 116/116/117 118/118/117 117/117/117
f 116/116/117 119/119/117 118/118/117
f 116/116/117 120/120/117 119/119/117
f 120/120/117 121/121/117 119/119/117
f 122/122/118 124/124/118 123/123/118
f 122/122/118 123/123/118 125/125/118
f 122/122/118 125/125/118 126/126/118
f 125/125/118 127/127/118 126/126/118
f 4/128/4 10/129/10 2/130/2
f 4/128/4 11/131/11 10/129/10
f 80/74/119 78/72/119 77/71/119
f 85/79/119 84/78/119 87/81/119
f 110/110/120 109/109/120 111/111/120
f 113/113/121 115/115/121 114/114/121
vt 1.07214 0.782685
v 0.148446 0.497245 0.119491
vt 0.465536 0.868552
vn 0.8389335 0.03339048 0.5432087
vt 0.24806 0.749312
vt 0.332496 1.00749
v -0.148446 0.497245 0.119491
vn -0.8389332 0.03339051 0.5432091
vt 0.0411314 0.868552
vt 1.07214 0.954418
o merged_1_0_node
g polygon_0
usemtl TEX_ANIM_EYE_mat_id
f 34/132/34 128/133/122 40/134/40
f 50/135/50 129/133/123 93/136/92
f 37/135/37 92/136/91 128/133/122
f 128/133/122 92/136/91 40/134/40
f 29/137/29 128/133/122 34/132/34
f 37/135/37 128/133/122 29/137/29
f 51/132/51 52/134/52 129/133/123
f 129/133/123 52/134/52 93/136/92
f 44/137/44 129/133/123 50/135/50
f 51/132/51 129/133/123 44/137/44
