mtllib Riolu.mtl
v -0.107033 0.0932913 0
vt 0.330411 0.552449
vn -0.9453765 0.03551008 -0.3240408
v -0.0565022 0.0516642 -0.08510551
vt 0.646528 0.476873
vn -0.37231 -0.482713 -0.7927001
v -0.108341 0.0516642 0
vt 0.322228 0.447712
vn -0.9570594 -0.2897991 -0.007327812
v -0.0562738 0.0932913 -0.0871881
vt 0.664466 0.604928
vn -0.4498241 0.232498 -0.8623242
v -0.0565022 0.0516642 0.0839822
vn -0.365163 -0.465364 0.806283
v -0.063498 0.21663 -3.57377E-05
vt 0.602763 0.945859
vn -0.7447138 0.5239728 -0.4133449
v -0.0562739 0.0932913 0.0843436
vt 0.647956 0.552449
vn -0.1609271 0.02256531 0.9867083
v -0.167564 0.161302 0.0996609
vt -0.0482657 0.76938
vn -0.8287398 0.188628 0.5268869
v 0.0562741 0.0932913 -0.0871881
vt 1.33554 0.604928
vn 0.4498249 0.2324979 -0.8623238
v 0.0565025 0.0516642 -0.08510551
vt 1.35347 0.476873
vn 0.37231 -0.482713 -0.7927001
v 0 0.034247 0
vt 1 0.500949
vn 0 -1 2.76202E-05
v 0.05650241 0.0516642 0.0839822
vn 0.3750441 -0.4730661 0.7972142
v -0.031749 0.21663 0.0463544
vt 0.801382 0.945859
vn 0 0.494253 0.8693181
v -0.0317489 0.21663 -0.0474815
vn -0.41491 0.418965 -0.8076621
v 0 0.229951 0
vt 1 0.988348
vn 0 0.9999999 0.0004774839
v 0.107033 0.0932913 0
vt 1.66959 0.552449
vn 0.9453768 0.03551039 -0.3240399
v 0.0317492 0.21663 -0.0474815
vt 1.19862 0.945859
vn 0.4149109 0.4189649 -0.8076617
v 0.0634982 0.21663 -3.57377E-05
vt 1.39724 0.945859
vn 0.7447141 0.523973 -0.413344
v 0.056274 0.0932913 0.0843436
vt 1.35205 0.552449
vn 0.1609271 0.02256531 0.9867083
vt -0.0482657 0.547371
v 0.108341 0.0516642 0
vt 1.67777 0.447712
vn 0.9570594 -0.2897991 -0.007327812
v 0.0317492 0.21663 0.0463544
v 0.167564 0.161302 0.099661
vt 2.04827 0.76938
vn 0.8287398 0.188628 0.5268869
vt 2.04827 0.547371
v 0.110175 0.512223 -0.0839323
vt 0.740055 0.0744472
vn 0.5079119 0.627317 -0.5903379
v 0.162596 0.385572 -0.0999709
vn 0.8678518 0.04436979 -0.4948379
v 0.0680916 0.384748 -0.184597
vn 0.3870519 0.04276329 -0.9210657
v 0.1593 0.482835 -0.00582899
vn 0.9374697 0.3462449 0.03556769
v 0 0.478404 -0.159643
vn 0 0.5667173 -0.8239124
v 0.127911 0.587333 -0.0179316
vn 0.277028 0.960263 0.0339205
v 0 0.545556 -0.0712514
vn 0 0.9500608 -0.3120649
v 0.0694102 0.531658 0.0199859
vn 0.2266709 0.9512786 0.2090199
v 0.110175 0.28297 -0.107962
vn 0.5857468 -0.5944858 -0.5508969
v 0.172735 0.323289 -0.00440687
vn 0.9570594 -0.2897991 -0.007327813
v -0.110175 0.512223 -0.0839323
vn -0.5079119 0.627317 -0.5903379
v -0.0680916 0.384748 -0.184597
vn -0.3870519 0.04276339 -0.9210657
v 0.120047 0.482454 0.0973048
vn 0.5649868 0.5570928 0.6086358
v 0 0.537887 0.0811455
vn 0 0.9016829 0.432398
v 0.101184 0.234936 -0.00170077
vn 0.5161042 -0.8565212 -0.002810221
v 0.144764 0.321275 0.0873866
vn 0.7913359 -0.3836419 0.4760319
v 0 0.291425 -0.157544
vn 0 -0.523641 -0.851939
v -0.0694102 0.531658 0.0199859
vn -0.2266709 0.9512786 0.2090199
v -0.162596 0.385572 -0.0999709
vn -0.8678523 0.04436982 -0.4948372
v -0.127911 0.587333 -0.0179315
vn -0.2770289 0.9602627 0.03392119
v -0.1593 0.482835 -0.00582899
vn -0.9374697 0.3462449 0.03556759
v 0 0.468112 0.15741
v 0.0475777 0.244661 0.120623
vn 0.3617391 -0.8273312 0.4297301
v 0.0766266 0.326068 0.143525
vn 0.617005 -0.134081 0.7754529
v 0 0.229793 -0.0982713
vn 0 -0.9091578 -0.4164519
v -0.110175 0.28297 -0.107962
vn -0.5857468 -0.5944858 -0.5508969
v -0.120047 0.482454 0.0973048
vn -0.5649868 0.5570928 0.6086358
v -0.172735 0.323289 -0.00440687
vn -0.9570594 -0.2897991 -0.007327813
v 0 0.221926 0.0268449
vn 0 -0.9979676 0.06372368
v -0.0475777 0.244661 0.120623
vn -0.3720079 -0.8261797 0.4231279
v -0.101184 0.234936 -0.00170077
vn -0.5161042 -0.8565212 -0.002810231
v -0.144764 0.321275 0.0873866
vn -0.7913359 -0.3836419 0.4760319
v -0.0766266 0.326068 0.143525
vn -0.617005 -0.134081 0.7754529
v 0 0.0611315 -0.238742
vt 0.928893 0.0418685
vn 0 -0.9707578 -0.240061
v -0.0482566 0.101357 -0.232483
vn -0.936261 0.276902 -0.216196
v 0 0.0744067 -0.30787
vn 0 0.136347 -0.9906611
v -0.0249331 0.0646193 -0.178513
vn -0.948994 -0.258482 0.180548
v 0.0482566 0.101357 -0.232483
vn 0.936261 0.276902 -0.216196
v 0 0.037187 -0.173568
v 0.0249331 0.0646193 -0.178513
vn 0.948994 -0.258482 0.180548
v 0 0.155793 -0.21601
vn 0 0.999925 0.0122492
v 0 0.0920888 -0.164084
vn 0 0.7174963 0.6965623
v 0 0.0555709 -0.0961486
vn 0 -0.08145352 0.9966772
v -0.0573382 0 0
vt 0.976559 0.139724
vn -0.128939 -0.9916522 -0.0007924901
vt 0.317742 0.439798
vt 0.959625 0.398887
vt 0.932357 0.383266
vt 0.79906 0.4462
v 0.0573382 0 0
vn 0.128938 -0.9916523 -0.0007924772
v 0.181048 0.269165 0.0380449
vt 0.636066 0.324726
vn -0.9361484 -0.3516051 0
v 0.235591 0.257702 0.0380449
vn 0.422618 -0.9063079 0
v 0.221458 0.288009 0.0826329
vn -0.03252931 0.06975972 0.9970333
v 0.221458 0.288009 -0.00654318
vn -0.03252941 0.06975982 -0.9970333
v 0.162114 0.415272 0.0380449
vn -0.4226188 0.9063076 0
v 0.261869 0.306853 0.0380449
vn 0.8710898 0.4911239 0
v -0.261854 0.306853 0.0380449
vn -0.8710898 0.4911239 0
v -0.235576 0.257702 0.0380449
vn -0.422618 -0.9063079 0
v -0.221444 0.288009 0.0826329
vn 0.03252931 0.06975982 0.9970333
v -0.221444 0.288009 -0.00654318
vn 0.03252931 0.06975992 -0.9970333
v -0.1621 0.415272 0.0380449
vn 0.422618 0.9063079 0
v -0.181033 0.269165 0.0380449
vn 0.9361484 -0.3516051 0
v -0.0300651 0.292964 0.18392
vt -0.193056 0.127333
vn -0.4151129 -0.4228779 0.8055158
vt -0.379085 0.24889
vt -0.269973 -0.123018
v 0 0.345165 0.195053
vt 0 0.281404
vn 0 0.1946049 0.9808818
v 0.0300651 0.292964 0.18392
vt 0.193056 0.127333
vt 0.379085 0.24889
vt 0.269973 -0.123018
vt 0.193056 0.120685
vt -0.269973 -0.129666
vt 0.269973 -0.129666
vt -0.193056 0.120685
o merged_0_0_node
g polygon_0
usemtl lambert3_mat_id
f 1/1/1 2/2/2 3/3/3
f 1/1/1 4/4/4 2/2/2
f 1/1/1 3/3/3 5/2/5
f 1/1/1 6/5/6 4/4/4
f 1/1/1 5/2/5 7/6/7
f 1/1/1 8/7/8 6/5/6
f 1/1/1 7/6/7 8/7/8
f 2/2/2 4/4/4 9/8/9
f 2/2/2 9/8/9 10/9/10
f 2/2/2 10/9/10 11/10/11
f 5/2/5 12/9/12 7/6/7
f 5/2/5 11/10/11 12/9/12
f 6/5/6 8/7/8 13/11/13
f 6/5/6 14/11/14 4/4/4
f 6/5/6 13/11/13 15/12/15
f 6/5/6 15/12/15 14/11/14
f 9/8/9 16/13/16 10/9/10
f 9/8/9 4/4/4 17/14/17
f 9/8/9 18/15/18 16/13/16
f 9/8/9 17/14/17 18/15/18
f 17/14/17 14/11/14 15/12/15
f 17/14/17 4/4/4 14/11/14
f 17/14/17 15/12/15 18/15/18
f 7/6/7 12/9/12 19/16/19
f 7/6/7 19/16/19 13/11/13
f 7/6/7 13/11/13 8/17/8
f 10/9/10 16/13/16 20/18/20
f 12/9/12 16/13/16 19/16/19
f 12/9/12 20/18/20 16/13/16
f 15/12/15 21/14/13 18/15/18
f 15/12/15 13/11/13 21/14/13
f 13/11/13 19/16/19 21/14/13
f 16/13/16 18/15/18 22/19/21
f 16/13/16 22/19/21 19/16/19
f 22/19/21 18/15/18 21/14/13
f 19/16/19 22/20/21 21/14/13
f 23/21/22 24/21/23 25/21/24
f 23/21/22 26/21/25 24/21/23
f 23/21/22 25/21/24 27/21/26
f 23/21/22 28/21/27 26/21/25
f 23/21/22 27/21/26 29/21/28
f 23/21/22 30/21/29 28/21/27
f 23/21/22 29/21/28 30/21/29
f 28/21/27 30/21/29 26/21/25
f 24/21/23 31/21/30 25/21/24
f 24/21/23 26/21/25 32/21/31
f 24/21/23 32/21/31 31/21/30
f 27/21/26 33/21/32 29/21/28
f 27/21/26 25/21/24 34/21/33
f 27/21/26 34/21/33 33/21/32
f 30/21/29 35/21/34 26/21/25
f 30/21/29 29/21/28 36/21/35
f 30/21/29 36/21/35 35/21/34
f 32/21/31 37/21/36 31/21/30
f 32/21/31 38/21/37 37/21/36
f 25/21/24 39/21/38 34/21/33
f 25/21/24 31/21/30 39/21/38
f 33/21/32 40/21/39 29/21/28
f 33/21/32 34/21/33 41/21/40
f 33/21/32 42/21/41 40/21/39
f 33/21/32 41/21/40 43/21/42
f 33/21/32 43/21/42 42/21/41
f 42/21/41 43/21/42 40/21/39
f 29/21/28 40/21/39 36/21/35
f 35/21/34 36/21/35 44/21/13
f 38/21/37 45/21/43 37/21/36
f 38/21/37 46/21/44 45/21/43
f 31/21/30 47/21/45 39/21/38
f 31/21/30 37/21/36 47/21/45
f 34/21/33 48/21/46 41/21/40
f 34/21/33 39/21/38 48/21/46
f 39/21/38 47/21/45 48/21/46
f 43/21/42 49/21/47 40/21/39
f 43/21/42 41/21/40 50/21/48
f 49/21/47 44/21/13 36/21/35
f 49/21/47 36/21/35 40/21/39
f 41/21/40 48/21/46 50/21/48
f 45/21/43 51/21/49 37/21/36
f 45/21/43 52/21/50 51/21/49
f 37/21/36 51/21/49 47/21/45
f 48/21/46 53/21/51 50/21/48
f 48/21/46 47/21/45 53/21/51
f 51/21/49 52/21/50 53/21/51
f 51/21/49 53/21/51 47/21/45
f 50/21/48 53/21/51 54/21/52
f 53/21/51 52/21/50 54/21/52
f 52/21/50 55/21/53 54/21/52
f 56/22/54 57/22/55 58/22/56
f 56/22/54 59/22/57 57/22/55
f 56/22/54 58/22/56 60/22/58
f 56/22/54 61/22/11 59/22/57
f 56/22/54 60/22/58 62/22/59
f 56/22/54 62/22/59 61/22/11
f 57/22/55 63/22/60 58/22/56
f 57/22/55 59/22/57 64/22/61
f 57/22/55 64/22/61 63/22/60
f 60/22/58 64/22/61 62/22/59
f 60/22/58 58/22/56 63/22/60
f 60/22/58 63/22/60 64/22/61
f 61/22/11 65/22/62 59/22/57
f 61/22/11 62/22/59 65/22/62
f 65/22/62 64/22/61 59/22/57
f 65/22/62 62/22/59 64/22/61
f 66/23/63 2/24/2 11/25/11
f 66/23/63 3/26/3 2/24/2
f 66/23/63 11/25/11 5/27/5
f 66/23/63 5/27/5 3/26/3
f 11/25/11 67/23/64 12/27/12
f 11/25/11 10/24/10 67/23/64
f 12/27/12 67/23/64 20/26/20
f 20/26/20 67/23/64 10/24/10
f 68/28/65 69/28/66 70/28/67
f 68/28/65 71/28/68 69/28/66
f 68/28/65 70/28/67 72/28/69
f 68/28/65 72/28/69 71/28/68
f 69/28/66 73/28/70 70/28/67
f 69/28/66 71/28/68 73/28/70
f 73/28/70 72/28/69 70/28/67
f 73/28/70 71/28/68 72/28/69
f 74/28/71 75/28/72 76/28/73
f 74/28/71 77/28/74 75/28/72
f 74/28/71 76/28/73 78/28/75
f 74/28/71 78/28/75 77/28/74
f 75/28/72 79/28/76 76/28/73
f 75/28/72 77/28/74 79/28/76
f 79/28/76 78/28/75 76/28/73
f 79/28/76 77/28/74 78/28/75
f 80/29/77 55/30/53 52/31/50
f 80/29/77 81/32/78 55/30/53
f 80/29/77 82/33/12 81/32/78
f 82/33/12 46/34/44 81/32/78
f 82/33/12 45/35/43 46/34/44
f 82/36/12 52/37/50 45/38/43
f 82/36/12 80/39/77 52/37/50
vt 0.0078149 0.771709
v -0.0478223 0.386883 0.15457
vt 0.200685 0.847197
vn -0.4578858 0.1636139 0.8738256
vt 0.372448 0.750909
v -0.149083 0.413418 0.0872649
vt 0.806958 0.890471
vn -0.8620293 0.105679 0.4957191
vt 0.643584 1.00077
vt 0.0413302 0.977858
v 0.149083 0.413418 0.0872649
vn 0.8620293 0.105679 0.4957191
vt 0.827033 0.743251
v 0.0478223 0.386883 0.15457
vn 0.4578858 0.1636139 0.8738256
vt 0.0569661 0.845589
v 0 0.386883 0.163032
vn 0 0.302839 0.9530417
vt 0.0161491 0.847197
o merged_1_0_node
g polygon_0
usemtl TEX_ANIM_EYE_mat_id
f 81/40/78 83/41/79 55/42/53
f 55/42/53 83/41/79 84/43/80
f 84/43/80 83/41/79 49/44/47
f 83/41/79 44/45/13 49/44/47
f 85/43/81 46/42/44 38/46/37
f 81/40/78 46/42/44 86/41/82
f 46/42/44 85/43/81 86/41/82
f 85/43/81 35/44/34 86/41/82
f 44/45/13 86/41/82 35/44/34
f 84/43/80 54/46/52 55/42/53
f 86/47/82 87/47/83 81/47/78
f 81/47/78 87/47/83 83/47/79
f 86/41/82 44/45/13 87/48/83
f 44/45/13 83/41/79 87/48/83
vt 0.8577 0.0717168
vt 0.309181 0.561885
vt 0.329255 -0.0269947
vt 0.814186 1.0026
vt 0.145807 1.00309
o merged_2_0_node
g polygon_0
usemtl mat_me_mat_id
f 32/49/31 85/50/81 38/51/37
f 26/52/25 85/50/81 32/49/31
f 35/53/34 85/50/81 26/52/25
f 43/52/42 84/50/80 49/53/47
f 50/49/48 84/50/80 43/52/42
f 50/49/48 54/51/52 84/50/80
